<svg width="167" height="31" viewBox="0 0 167 31" fill="none" xmlns="http://www.w3.org/2000/svg">
<path d="M136.824 7.08969C139.914 7.34492 142.654 5.19804 142.925 2.28549C142.941 2.19541 142.941 2.10534 142.941 2.00024H139.691C139.357 3.23132 138.56 3.84686 136.824 3.84686C135.088 3.84686 134.18 3.23132 133.909 2.00024H130.66C130.788 4.94282 133.448 7.23983 136.569 7.10471C136.649 7.10471 136.729 7.08969 136.824 7.08969Z" fill="#010101"/>
<path d="M70.0075 21.305V8.67896H65.9141V27.085H70.1827L78.4333 14.2488V27.085H82.5268V8.67896H78.2581L70.0075 21.305Z" fill="#010101"/>
<path d="M53.0134 8.83239C49.9393 8.69727 47.0404 10.2436 45.5751 12.7808C45.7821 8.60719 46.69 6.13003 51.9462 5.48446L60.1331 4.44856L59.7986 0.334961L51.2613 1.41591C43.9027 2.34672 41.832 7.54126 41.832 15.7084C41.832 22.8547 45.368 27.4337 51.9303 27.4337C58.3333 27.4337 61.8055 22.9147 61.8055 17.6151C62.1241 13.0661 58.4607 9.14767 53.6346 8.8474C53.4434 8.83239 53.2364 8.83239 53.0134 8.83239ZM51.9462 23.3801C48.235 23.3801 46.0529 20.918 46.0529 17.2097V15.3031C46.8334 13.8618 48.9199 12.7358 51.9462 12.7358C55.1477 12.7358 57.6165 14.117 57.6165 17.6151C57.6165 21.1131 55.6574 23.3801 51.9462 23.3801Z" fill="#010101"/>
<path d="M162.405 8.67896V15.57H154.425V8.67896H150.332V27.085H154.425V19.3683H162.405V27.085H166.499V8.67896H162.405Z" fill="#010101"/>
<path d="M132.668 21.305V8.67896H128.574V27.085H132.843L141.094 14.2488V27.085H145.187V8.67896H140.918L132.668 21.305Z" fill="#010101"/>
<path d="M89.9008 19.9388C89.4548 21.9956 88.8336 22.8664 87.5913 22.8664C87.0816 22.8814 86.5719 22.8363 86.0781 22.7162V26.98C86.7152 27.2502 87.4001 27.3703 88.101 27.3403C90.076 27.3853 91.844 26.2143 92.4811 24.4578C92.9908 23.0165 93.3094 21.5002 93.4368 19.9838C93.7076 17.5217 93.835 15.0595 93.835 12.5824H99.2823V27.0851H103.376V8.67896H90.4105C90.4901 12.4473 90.3149 16.2005 89.9008 19.9388Z" fill="#010101"/>
<path d="M122.696 22.1042L122.76 14.8079C122.823 10.1838 119.733 8.27714 115.242 8.27714C111.355 7.99189 107.963 10.7093 107.66 14.3725C107.66 14.3875 107.66 14.4175 107.66 14.4325H111.594C111.817 12.736 113.283 12.1655 115.242 12.1655C117.249 12.1655 118.603 12.736 118.81 14.6277L113.792 16.4893C110.368 17.7804 107.788 19.2217 107.788 22.2544C107.788 25.3921 109.699 27.4039 113.506 27.4039C115.927 27.4639 118.157 26.1428 119.144 24.0559C119.351 26.2779 120.944 27.2537 123.715 27.2537H124.846V23.7106H124.512C123.206 23.6956 122.696 23.2302 122.696 22.1042ZM115.003 23.5455C113.092 23.5455 111.69 23.0801 111.69 21.4887C111.69 20.1075 112.869 19.4919 114.891 18.7113L118.81 17.225L118.762 22.2093C117.774 23.1401 116.405 23.6206 115.003 23.5455Z" fill="#010101"/>
<path d="M16.283 30.2396C24.9478 30.3597 32.0675 23.6489 32.1949 15.2565C32.0516 6.84919 24.9318 0.138318 16.283 0.258423C7.61826 0.138318 0.498517 6.84919 0.371094 15.2565C0.498517 23.6489 7.61826 30.3597 16.283 30.2396Z" fill="#FECA26"/>
<path d="M23.1173 26.4262C17.7178 29.3688 11.8563 29.8942 8.11328 28.1377C13.0828 30.9302 19.215 30.9602 24.2163 28.2428C29.1699 25.6005 32.228 20.5261 32.1643 15.0312C31.9413 18.9647 28.5169 23.4836 23.1173 26.4262Z" fill="#010101"/>
<path d="M18.2901 1.37127C19.3891 3.15783 16.7451 6.53578 12.3809 8.90786C8.01666 11.2799 3.60465 11.7603 2.50563 9.97379C2.45785 9.88371 2.41006 9.79363 2.37821 9.70355C2.17114 8.60759 2.4897 7.49662 3.25424 6.65589C3.38166 6.47573 3.52501 6.31058 3.66836 6.13043C4.94259 4.56906 6.53538 3.26292 8.33522 2.28707C10.1351 1.28119 12.126 0.650636 14.1807 0.395413C14.4197 0.365386 14.6426 0.33536 14.8656 0.320347C16.0124 0.125176 17.1911 0.410426 18.099 1.13106C18.1627 1.20612 18.2423 1.28119 18.2901 1.37127Z" fill="#010101"/>
<path d="M25.0611 3.28967C26.9724 6.4124 23.1179 11.8772 16.4441 15.5104C9.77036 19.1435 2.80989 19.5489 0.91448 16.4262C0.595923 15.9007 0.420717 15.3152 0.388861 14.6996C0.309222 16.8465 0.707418 18.9784 1.58345 20.9601C1.71087 21.2604 1.85422 21.5606 2.0135 21.8609L2.02943 21.9059C2.63469 22.8518 3.49479 23.6174 4.51417 24.1129C8.25722 26.0045 14.5806 25.359 20.5057 22.1311C26.415 18.9183 30.1739 14.0691 30.3173 10.0756C30.381 8.97964 30.1102 7.8987 29.5368 6.95287C29.3138 6.65261 29.0908 6.35234 28.8519 6.0671C27.4662 4.38563 25.7301 3.00442 23.755 2.02856C24.2966 2.34384 24.7425 2.77922 25.0611 3.28967Z" fill="#010101"/>
</svg>
