<svg width="53" height="17" viewBox="0 0 53 17" fill="none" xmlns="http://www.w3.org/2000/svg">
<mask id="mask0_240_3103" style="mask-type:luminance" maskUnits="userSpaceOnUse" x="0" y="0" width="53" height="17">
<path d="M52.3965 0.501221H0.349091V16.0241H52.3965V0.501221Z" fill="white"/>
</mask>
<g mask="url(#mask0_240_3103)">
<path d="M48.4583 5.7413C48.4583 5.57567 48.5809 5.40989 48.8261 5.40989H51.0938V5.78647C51.0938 5.96716 50.9865 6.07272 50.8181 6.07272H48.8257C48.5809 6.07272 48.4583 5.90693 48.4583 5.7413ZM47.2474 5.75636C47.2474 6.44915 47.6614 7.0668 48.5809 7.0668H50.205C50.4503 7.0668 50.5883 7.02163 50.7412 6.856L51.0938 6.49447V7.0668H52.3965V4.17488C52.3965 3.4821 51.9979 2.98505 50.9715 2.98505H47.4315V3.97914H50.7416C50.9561 3.97914 51.0942 4.06948 51.0942 4.28044V4.50614H48.5809C47.6917 4.50614 47.2474 5.09369 47.2474 5.75636ZM43.3434 13.5284H44.5693V10.5913L46.0712 13.2572C46.1938 13.468 46.3318 13.5284 46.5463 13.5284H46.8223C47.0368 13.5284 47.1748 13.4681 47.2971 13.2572L48.7989 10.5913V13.5284H50.0556V9.44647H48.6613C48.3238 9.44647 48.1708 9.52175 48.0174 9.808L46.6843 12.1577L45.3662 9.808C45.2132 9.52175 45.0598 9.44647 44.7227 9.44647H43.3434V13.5284ZM42.0221 5.7413C42.0221 6.56976 42.5737 7.0668 43.4625 7.0668H46.7265V6.07272H43.6159C43.4471 6.07272 43.3245 5.95226 43.3245 5.78647V4.26523C43.3245 4.0996 43.4471 3.97898 43.6159 3.97898H46.7265V2.9849H43.4625C42.5737 2.9849 42.0221 3.48194 42.0221 4.3104V5.7413ZM38.2866 12.248V10.8021C38.2866 10.6365 38.4092 10.5158 38.5778 10.5158H40.9532C41.1215 10.5158 41.2442 10.6363 41.2442 10.8021V12.248C41.2442 12.4137 41.1219 12.5343 40.9532 12.5343H38.5778C38.4092 12.5343 38.2866 12.4137 38.2866 12.248ZM37.0607 12.2029C37.0607 13.0313 37.6124 13.5284 38.5012 13.5284H41.1062C41.9953 13.5284 42.5469 13.0313 42.5469 12.2029V10.772C42.5469 9.94351 41.9953 9.44647 41.1062 9.44647H38.5012C37.6124 9.44647 37.0607 9.94351 37.0607 10.772V12.2029ZM37.4248 4.59664V4.29534C37.4248 4.0996 37.5473 3.96393 37.762 3.96393H39.7694C39.9994 3.96393 40.1374 4.1145 40.1374 4.29534V4.59664H37.4248ZM36.1222 5.87682C36.1222 6.5696 36.5206 7.06665 37.5473 7.06665H41.3325V6.07256H37.8079C37.5628 6.07256 37.4248 5.96716 37.4248 5.7562V5.50008H41.3325V4.31024C41.3325 3.52696 40.8116 2.98474 39.9532 2.98474H37.5014C36.6432 2.98474 36.1222 3.52696 36.1222 4.31024V5.87682ZM32.1417 12.5192V10.8021C32.1417 10.6214 32.2642 10.5008 32.4329 10.5008H34.7775C34.946 10.5008 35.0687 10.6212 35.0687 10.787V12.233C35.0687 12.3986 34.9462 12.5192 34.7775 12.5192H32.1417ZM30.9156 14.7333H32.1568V13.5284H34.9304C35.8193 13.5284 36.3709 13.0313 36.3709 12.2029V10.772C36.3709 9.94351 35.8193 9.44647 34.9304 9.44647H33.0148C32.7697 9.44647 32.6317 9.49164 32.4785 9.65727L32.1414 10.0188V9.44647H30.9155L30.9156 14.7333ZM30.0078 7.0668H30.5135C31.2337 7.0668 31.5249 7.02163 31.7394 6.29857L32.3523 4.28028C32.3983 4.12971 32.5055 4.05443 32.6589 4.05443H34.0994V7.0668H35.3252V2.9849H32.4443C31.8467 2.9849 31.4941 3.22581 31.3256 3.76818L30.6974 5.8467C30.6514 6.01233 30.5595 6.07256 30.3908 6.07256H30.0077L30.0078 7.0668ZM26.1652 12.2029C26.1652 12.0372 26.2878 11.8715 26.533 11.8715H28.8009V12.248C28.8009 12.4287 28.6937 12.5343 28.525 12.5343H26.5329C26.2878 12.5343 26.1652 12.3685 26.1652 12.2029ZM24.9547 12.2179C24.9547 12.9107 25.3684 13.5284 26.2879 13.5284H27.9123C28.1574 13.5284 28.2954 13.4832 28.4486 13.3176L28.8011 12.956V13.5284H30.1037V10.6365C30.1037 9.94367 29.7053 9.44662 28.6785 9.44662H25.1386V10.4407H28.4487C28.6632 10.4407 28.8012 10.5311 28.8012 10.742V10.9679H26.2878C25.3989 10.9677 24.9547 11.5553 24.9547 12.2179ZM24.1848 5.7413C24.1848 6.56976 24.7364 7.0668 25.6253 7.0668H28.2303C29.1192 7.0668 29.6708 6.56976 29.6708 5.7413V4.3104C29.6708 3.48194 29.1192 2.9849 28.2303 2.9849H25.6253C24.7364 2.9849 24.1848 3.48194 24.1848 4.3104V5.7413ZM20.3266 12.5192L20.863 10.7268C20.9089 10.5762 21.0162 10.5009 21.1695 10.5009H22.8092V12.5192H20.3266ZM18.5951 14.4018H19.7903V13.5282H23.4068V14.4018H24.602V12.5192H24.035V9.44647H20.9549C20.3573 9.44647 20.0048 9.68738 19.8363 10.2298L19.1467 12.5192H18.5951V14.4018ZM19.1431 7.0668H20.369V5.48517H21.2731L22.683 7.06665H24.2154L22.2385 4.85261L24.0927 2.9849H22.6062L21.1657 4.47603H20.3688V2.9849H19.1429L19.1431 7.0668ZM25.7018 4.05443H28.0771C28.2456 4.05443 28.3683 4.17488 28.3683 4.34067V5.78663C28.3683 5.95226 28.2458 6.07287 28.0771 6.07287H25.7018C25.5333 6.07287 25.4106 5.95241 25.4106 5.78663V4.34067C25.4106 4.17488 25.5332 4.05443 25.7018 4.05443Z" fill="#30464A"/>
<path d="M13.2944 6.4614C13.5019 7.02364 13.6153 7.63012 13.6153 8.26268C13.6153 11.1776 11.2113 13.5405 8.24567 13.5405C5.28003 13.5405 2.876 11.1776 2.876 8.26268C2.876 5.34779 5.28003 2.98489 8.24567 2.98489C9.20638 2.98489 10.108 3.2331 10.8882 3.66759L12.7202 1.86693C11.4484 1.00556 9.90693 0.501221 8.24567 0.501221C3.88455 0.501221 0.349091 3.97618 0.349091 8.26268C0.349091 12.5492 3.88455 16.0241 8.24567 16.0241C12.6068 16.0241 16.1423 12.5492 16.1423 8.26268C16.1423 6.93268 15.8017 5.68075 15.2019 4.58654L13.2944 6.4614Z" fill="#00BE76"/>
<path d="M14.5808 1.02625L8.24568 7.25282L5.50526 4.55913C5.31119 4.69806 5.12559 4.85344 4.95044 5.02559C4.56289 5.40653 4.25824 5.83791 4.03587 6.29801L8.24568 10.436L16.13 2.68658C15.6814 2.07482 15.161 1.51739 14.5808 1.02625Z" fill="#30464A"/>
</g>
</svg>
