<svg width="137" height="42" viewBox="0 0 137 42" fill="none" xmlns="http://www.w3.org/2000/svg">
<path d="M126.209 14.0972C126.209 13.6597 126.53 13.2218 127.171 13.2218H133.096V14.2165C133.096 14.6937 132.816 14.9725 132.376 14.9725H127.17C126.53 14.9725 126.209 14.5347 126.209 14.0972ZM123.045 14.137C123.045 15.9668 124.127 17.5982 126.53 17.5982H130.774C131.414 17.5982 131.775 17.4789 132.175 17.0414L133.096 16.0865V17.5982H136.5V9.95988C136.5 8.13005 135.458 6.81723 132.776 6.81723H123.526V9.44287H132.176C132.736 9.44287 133.097 9.68149 133.097 10.2387V10.8348H126.53C124.206 10.8348 123.045 12.3867 123.045 14.137ZM112.844 34.6648H116.047V26.9072L119.972 33.9486C120.292 34.5053 120.653 34.6648 121.213 34.6648H121.935C122.495 34.6648 122.856 34.5058 123.175 33.9486L127.1 26.9072V34.6648H130.383V23.8835H126.74C125.858 23.8835 125.458 24.0823 125.057 24.8384L121.574 31.0445L118.13 24.8384C117.73 24.0823 117.329 23.8835 116.448 23.8835H112.844V34.6648ZM109.392 14.0972C109.392 16.2854 110.833 17.5982 113.155 17.5982H121.684V14.9725H113.556C113.115 14.9725 112.795 14.6544 112.795 14.2165V10.1985C112.795 9.76103 113.115 9.44246 113.556 9.44246H121.684V6.81682H113.155C110.833 6.81682 109.392 8.12964 109.392 10.3178V14.0972ZM99.6308 31.2832V27.464C99.6308 27.0265 99.951 26.708 100.392 26.708H106.599C107.038 26.708 107.359 27.0261 107.359 27.464V31.2832C107.359 31.7206 107.04 32.0392 106.599 32.0392H100.392C99.951 32.0392 99.6308 31.7206 99.6308 31.2832ZM96.4276 31.1638C96.4276 33.352 97.8691 34.6648 100.192 34.6648H106.998C109.322 34.6648 110.763 33.352 110.763 31.1638V27.3845C110.763 25.1963 109.322 23.8835 106.998 23.8835H100.192C97.8691 23.8835 96.4276 25.1963 96.4276 27.3845V31.1638ZM97.3789 11.0738V10.278C97.3789 9.76103 97.6991 9.40269 98.2599 9.40269H103.505C104.106 9.40269 104.467 9.80039 104.467 10.278V11.0738H97.3789ZM93.9751 14.4551C93.9751 16.2849 95.0163 17.5978 97.6991 17.5978H107.59V14.9721H98.38C97.7395 14.9721 97.3789 14.6937 97.3789 14.1365V13.46H107.59V10.3174C107.59 8.24854 106.229 6.81641 103.986 6.81641H97.579C95.3365 6.81641 93.9751 8.24854 93.9751 10.3174V14.4551ZM83.574 31.9994V27.464C83.574 26.9868 83.8943 26.6682 84.335 26.6682H90.4615C90.9019 26.6682 91.2225 26.9864 91.2225 27.4242V31.2434C91.2225 31.6809 90.9023 31.9994 90.4615 31.9994H83.574ZM80.3704 37.8473H83.6136V34.6648H90.8611C93.1836 34.6648 94.6251 33.352 94.6251 31.1638V27.3845C94.6251 25.1963 93.1836 23.8835 90.8611 23.8835H85.8557C85.2152 23.8835 84.8545 24.0028 84.4542 24.4403L83.5732 25.3951V23.8835H80.37L80.3704 37.8473ZM77.9984 17.5982H79.3197C81.2016 17.5982 81.9625 17.4789 82.5229 15.5691L84.1245 10.2383C84.2446 9.84057 84.5248 9.64172 84.9255 9.64172H88.6895V17.5982H91.8927V6.81682H84.3647C82.8032 6.81682 81.8821 7.45314 81.4417 8.88568L79.8001 14.3756C79.68 14.813 79.4399 14.9721 78.9991 14.9721H77.9979L77.9984 17.5982ZM67.9575 31.1638C67.9575 30.7264 68.2778 30.2885 68.9187 30.2885H74.8447V31.2832C74.8447 31.7604 74.5645 32.0392 74.1238 32.0392H68.9183C68.2778 32.0392 67.9575 31.6013 67.9575 31.1638ZM64.7944 31.2036C64.7944 33.0334 65.8756 34.6648 68.2782 34.6648H72.5226C73.163 34.6648 73.5238 34.5455 73.924 34.1081L74.8451 33.1532V34.6648H78.2488V27.0265C78.2488 25.1967 77.2077 23.8839 74.5249 23.8839H65.2751V26.5095H73.9244C74.4848 26.5095 74.8455 26.7481 74.8455 27.3053V27.9019H68.2778C65.9553 27.9015 64.7944 29.4533 64.7944 31.2036ZM62.7826 14.0972C62.7826 16.2854 64.224 17.5982 66.5466 17.5982H73.3536C75.6763 17.5982 77.1178 16.2854 77.1178 14.0972V10.3178C77.1178 8.12964 75.6763 6.81682 73.3536 6.81682H66.5466C64.224 6.81682 62.7826 8.12964 62.7826 10.3178V14.0972ZM52.7013 31.9994L54.1029 27.2652C54.2229 26.8675 54.5031 26.6686 54.9038 26.6686H59.1882V31.9994H52.7013ZM48.1768 36.9719H51.2999V34.6644H60.7497V36.9719H63.8729V31.9994H62.3914V23.8835H54.343C52.7814 23.8835 51.8603 24.5198 51.42 25.9523L49.6183 31.9994H48.1768V36.9719ZM49.6088 17.5982H52.812V13.4207H55.1746L58.8585 17.5978H62.8627L57.6972 11.7499L62.5421 6.81682H58.6579L54.8939 10.7553H52.8116V6.81682H49.6084L49.6088 17.5982ZM66.7467 9.64172H72.9534C73.3937 9.64172 73.7144 9.95988 73.7144 10.3978V14.2169C73.7144 14.6544 73.3941 14.9729 72.9534 14.9729H66.7467C66.3065 14.9729 65.9857 14.6548 65.9857 14.2169V10.3978C65.9857 9.95988 66.3061 9.64172 66.7467 9.64172Z" fill="#30464A"/>
<path d="M34.3262 15.9992C34.8684 17.4842 35.1647 19.0861 35.1647 20.7568C35.1647 28.4558 28.883 34.6968 21.1338 34.6968C13.3846 34.6968 7.10281 28.4558 7.10281 20.7568C7.10281 13.0579 13.3846 6.81684 21.1338 6.81684C23.6441 6.81684 26 7.47243 28.0387 8.62002L32.8257 3.86402C29.5024 1.58893 25.4746 0.256836 21.1338 0.256836C9.73815 0.256836 0.5 9.4351 0.5 20.7568C0.5 32.0786 9.73815 41.2568 21.1338 41.2568C32.5293 41.2568 41.7675 32.0786 41.7675 20.7568C41.7675 17.244 40.8778 13.9373 39.3105 11.0472L34.3262 15.9992Z" fill="#00BE76"/>
<path d="M37.6874 1.64355L21.1338 18.0895L13.9731 10.9748C13.4659 11.3418 12.981 11.7522 12.5233 12.2069C11.5106 13.213 10.7146 14.3524 10.1335 15.5676L21.1338 26.497L41.7354 6.02892C40.5633 4.41311 39.2036 2.9408 37.6874 1.64355Z" fill="#30464A"/>
</svg>
