<svg width="172" height="43" viewBox="0 0 172 43" fill="none" xmlns="http://www.w3.org/2000/svg">
<path d="M59.4747 25.1444C57.3226 25.1444 55.5119 23.4362 55.5119 20.9001C55.5119 18.3909 57.3226 16.6557 59.4747 16.6557C61.6527 16.6557 63.4636 18.3909 63.4636 20.9001C63.4636 23.4362 61.6527 25.1444 59.4747 25.1444ZM59.4747 13.7725C55.4069 13.7725 52.1527 16.7356 52.1527 20.9001C52.1527 25.0912 55.4069 28.0275 59.4747 28.0275C63.5685 28.0275 66.8227 25.0912 66.8227 20.9001C66.8227 16.7356 63.5685 13.7725 59.4747 13.7725Z" fill="black"/>
<path d="M91.6951 25.1711C89.4904 25.1711 88.388 23.0891 88.388 20.9801C88.388 17.9634 90.0151 16.6824 91.7472 16.6824C93.7157 16.6824 95.0804 18.364 95.0804 20.9533C95.0804 23.6496 93.5315 25.1711 91.6951 25.1711ZM92.4821 13.7725C89.3592 13.7725 88.2308 15.9347 88.2308 15.9347H88.1787V15.4009C88.1787 14.6533 87.7322 14.0927 86.4988 14.0927H83.5334V16.9759H84.5829C84.9504 16.9759 85.1604 17.1626 85.1604 17.5631V33.0461H88.4671V27.4136C88.4671 26.7197 88.4149 26.239 88.4149 26.239H88.4671C88.4671 26.239 89.6476 28.0275 92.2988 28.0275C95.8153 28.0275 98.4396 25.2246 98.4396 20.9001C98.4396 16.6824 96.1037 13.7725 92.4821 13.7725Z" fill="black"/>
<path d="M106.711 22.1816C106.475 22.8753 106.265 23.9968 106.265 23.9968H106.212C106.212 23.9968 106.002 22.8753 105.74 22.1816L103.116 15.3742C102.774 14.4398 102.302 14.0928 101.357 14.0928H99.1528V16.976H99.5463C99.9138 16.976 100.098 17.0559 100.255 17.4564L104.716 27.6805L104.27 28.7216C103.798 29.8963 102.985 30.4568 102.065 30.4568C100.963 30.4568 100.15 29.5225 100.15 29.5225L98.8644 31.925C98.8644 31.925 100.15 33.3132 102.25 33.3132C104.244 33.3132 106.134 32.2185 107.078 29.7627L111.881 17.4564C112.038 17.0559 113.035 14.0928 113.035 14.0928H109.392L106.711 22.1816Z" fill="black"/>
<path d="M158.135 21.8078C158.135 23.4626 156.875 25.3847 155.091 25.3847C153.726 25.3847 153.07 24.5306 153.07 23.6229C153.07 21.7275 155.826 21.4875 157.557 21.4875H158.135V21.8078ZM161.993 24.8509C161.625 24.8509 161.415 24.6374 161.415 24.2635V19.1917C161.415 16.1483 160.103 13.7725 155.642 13.7725C154.251 13.7725 150.735 14.0395 150.735 16.5753V18.0171H153.831V17.2961C153.831 16.5488 155.012 16.3885 155.616 16.3885C157.322 16.3885 158.082 17.1094 158.082 19.0582V19.1648H157.662C155.485 19.1648 149.71 19.5119 149.71 23.783C149.71 26.5062 151.889 28.0275 154.277 28.0275C157.296 28.0275 158.318 25.6249 158.318 25.6249H158.371C158.371 25.6249 158.345 25.8652 158.345 26.2122C158.345 27.0131 158.818 27.7073 160.05 27.7073H163.042V24.8509H161.993Z" fill="black"/>
<path d="M146.588 24.3439L145.066 21.4072C144.594 20.5264 144.121 20.3396 144.121 20.3396V20.286C144.121 20.286 144.542 20.0725 145.118 19.2182L148.505 14.0928H144.804L142.075 18.3909C141.786 18.8179 141.235 18.8979 140.815 18.8979H139.818V14.0928H136.485V27.7072H139.818V21.7543H140.553C140.972 21.7543 141.523 21.781 141.786 22.2615L144.017 26.5326C144.542 27.5205 144.988 27.7072 146.116 27.7072H148.583V24.8509H147.691C147.061 24.8509 146.799 24.7441 146.588 24.3439Z" fill="black"/>
<path d="M132.525 24.3439L131.003 21.4072C130.531 20.5264 130.059 20.3396 130.059 20.3396V20.286C130.059 20.286 130.478 20.0725 131.056 19.2182L134.441 14.0928H130.741L128.011 18.3909C127.723 18.8179 127.172 18.8979 126.752 18.8979H125.755V14.0928H122.421V18.8979H121.424C121.005 18.8979 120.454 18.8179 120.165 18.3909L117.436 14.0928H113.735L117.121 19.2182C117.697 20.0725 118.118 20.286 118.118 20.286V20.3396C118.118 20.3396 117.645 20.5264 117.173 21.4072L115.651 24.3439C115.442 24.7441 115.178 24.8509 114.549 24.8509H113.656V27.7072H116.123C117.252 27.7072 117.697 27.5205 118.223 26.5326L120.454 22.2615C120.716 21.781 121.267 21.7543 121.687 21.7543H122.421V27.7072H125.755V21.7543H126.489C126.909 21.7543 127.461 21.781 127.723 22.2615L129.954 26.5326C130.478 27.5205 130.925 27.7072 132.053 27.7072H134.52V24.8509H133.627C132.998 24.8509 132.735 24.7441 132.525 24.3439Z" fill="black"/>
<path d="M75.0809 24.5838C72.9288 24.5838 71.748 22.8221 71.748 20.4463C71.748 18.1505 72.8503 16.6556 74.8711 16.6556C76.5506 16.6556 77.98 17.3712 78.1782 19.9464L78.1716 21.2752C77.955 23.7891 76.5527 24.5838 75.0809 24.5838ZM70.4084 35.301C69.326 32.956 73.2015 30.9297 77.0696 32.9442C76.0582 36.1075 71.4735 37.6082 70.4084 35.301ZM80.8577 31.2305C81.3676 28.745 81.3681 26.0808 81.3681 23.7029V14.0924H78.2071L78.2007 15.3885C77.7644 14.8463 76.6086 13.7725 74.2936 13.7725C70.4357 13.7725 68.3627 16.8155 68.3627 20.553C68.3627 24.2902 70.5407 27.4401 74.3723 27.4401C76.1568 27.4401 77.3116 26.8264 78.0988 25.6785H78.1493C78.1312 27.3007 78.0537 28.6694 77.8732 29.8235C75.9408 29.1319 73.7813 28.7951 71.5722 29.2588C69.4011 29.7157 67.8261 30.9995 67.2508 32.7804C66.7204 34.4222 67.1308 36.2805 68.3225 37.6295C69.4146 38.8665 70.9635 39.5214 72.7152 39.5214C73.2432 39.5214 73.7898 39.4617 74.3479 39.3409C77.2027 38.7209 78.8966 36.7437 79.9015 34.3992C81.8735 35.6611 83.2008 37.0182 83.2277 37.0462L85.4888 34.7995C85.3468 34.6512 83.5417 32.7955 80.8577 31.2305Z" fill="black"/>
<path d="M50.015 24.1826V15.6304C50.015 14.3457 49.4775 13.7725 48.2151 13.7725H37.4031V27.7071H40.7096V16.7231H46.0392C46.4153 16.7231 46.6301 16.9144 46.6301 17.3242V25.8493C46.6301 27.1605 47.1676 27.7071 48.43 27.7071H51.2374V24.7836H50.6058C50.2297 24.7836 50.015 24.5652 50.015 24.1826Z" fill="black"/>
<path d="M31.2727 19.3667C31.2727 10.6682 24.2721 3.6167 15.6364 3.6167C7.00064 3.6167 0 10.6682 0 19.3667C0 28.0652 7.00064 35.1167 15.6364 35.1167C24.2721 35.1167 31.2727 28.0652 31.2727 19.3667Z" fill="#EA5092"/>
<path d="M20.1415 20.32C17.4854 18.8906 15.7999 17.0187 15.122 14.7389C14.3835 12.2567 15.4182 10.5202 16.8219 10.0877C17.0388 10.0209 17.2657 9.98604 17.4981 9.98604C18.7398 9.98604 20.1285 10.9824 20.8817 13.4135C21.6668 15.9475 21.1352 18.3833 20.1415 20.32ZM7.85489 24.4579C6.93154 23.6909 6.49083 22.7908 6.64542 21.9889C6.74624 21.4655 7.09015 21.0628 7.5656 20.9112C7.70458 20.8668 7.85099 20.8451 8.0035 20.8451C8.61903 20.8451 9.32951 21.2011 10.0164 21.8671C10.8481 22.6731 11.3954 24.106 11.5196 25.7033C10.2363 25.7015 8.9472 25.3657 7.85489 24.4579ZM30.8418 23.0351C28.004 22.8736 25.1855 22.3337 22.8045 21.4886C24.0496 18.9747 24.692 15.8266 23.6727 12.5362C22.1882 7.74537 18.6378 6.4495 15.967 7.27162C14.4973 7.72425 13.2603 8.8159 12.5726 10.2665C11.8358 11.8211 11.749 13.6598 12.3212 15.5839C13.1912 18.5091 15.2947 20.9517 18.4618 22.7456C18.1403 23.0966 17.8158 23.401 17.5032 23.652C16.9259 24.1154 15.7845 24.7682 14.4149 25.2121C14.1982 22.988 13.3602 21.0214 12.0437 19.745C10.3909 18.1429 8.4375 17.5444 6.68358 18.1035C5.19309 18.5785 4.07872 19.8523 3.77528 21.4278C3.41028 23.3222 4.21916 25.2545 5.99417 26.7295C7.61473 28.076 9.45729 28.6123 11.2672 28.6588C10.9097 30.1006 10.1144 31.8539 8.38508 33.3208C9.32195 33.8156 10.316 34.2165 11.3559 34.5137C12.9146 32.794 13.9485 30.6421 14.3185 28.3122C16.4384 27.7953 18.2758 26.7974 19.3252 25.9551C19.9381 25.4634 20.5847 24.812 21.1992 24.0313C23.7395 25.0127 26.7749 25.6674 29.8561 25.9172C30.2723 25.0016 30.6043 24.0379 30.8418 23.0351Z" fill="white"/>
</svg>
