<svg width="150" height="36" viewBox="0 0 150 36" fill="none" xmlns="http://www.w3.org/2000/svg">
<path d="M12.949 9.87061H17.4849V22.6688H27.3139V25.6433H12.949V9.87061Z" fill="#1D1D1B"/>
<path d="M45.0387 22.7135V25.6426H29.862V9.87061H44.6744V12.7997H34.3693V16.2243H43.4706V19.0634H34.3693V22.7135H45.0387Z" fill="#1D1D1B"/>
<path d="M52.023 24.8538C50.4354 24.1833 49.1081 23.1737 48.187 21.9358C47.2619 20.6973 46.7993 19.3043 46.7993 17.7568C46.7993 16.2093 47.2619 14.816 48.187 13.577C49.1084 12.3393 50.4356 11.3298 52.023 10.6591C53.6558 9.95325 55.4898 9.60034 57.5251 9.60034C59.5603 9.60034 61.3897 9.95325 63.0133 10.6591C64.5959 11.3346 65.9211 12.3431 66.8475 13.577C67.7802 14.8165 68.2468 16.2097 68.2473 17.7568C68.2479 19.3038 67.7813 20.6968 66.8475 21.9358C65.9207 23.1702 64.5945 24.1788 63.0107 24.8538C61.3871 25.5601 59.5577 25.9132 57.5225 25.9132C55.4872 25.9132 53.6532 25.5601 52.0204 24.8538M60.6586 22.1613C61.5842 21.7403 62.3458 21.1202 62.858 20.3704C63.3894 19.6041 63.6553 18.7329 63.6559 17.7568C63.6565 16.7806 63.3905 15.9094 62.858 15.1431C62.3459 14.3934 61.5847 13.773 60.6594 13.3516C59.6971 12.9302 58.6189 12.7095 57.5233 12.7095C56.4277 12.7095 55.3496 12.9302 54.3872 13.3516C53.4622 13.7728 52.7014 14.3932 52.1904 15.1431C51.6584 15.9085 51.3925 16.7797 51.3925 17.7568C51.3925 18.7338 51.6584 19.6051 52.1904 20.3704C52.7017 21.1203 53.4628 21.7405 54.3881 22.1613C55.3504 22.5826 56.4286 22.8034 57.5242 22.8034C58.6198 22.8034 59.6979 22.5826 60.6603 22.1613" fill="#1D1D1B"/>
<path d="M89.0908 25.6426L89.063 16.1797L83.2947 23.9753H81.2505L75.5099 16.3821V25.6426H71.2533V9.87061H75.0061L82.3424 19.672L89.5669 9.87061H93.2911L93.3475 25.6426H89.0908Z" fill="#1D1D1B"/>
<path d="M111.316 22.2633H102.216L100.481 25.6426H95.8323L104.569 9.86987H109.05L117.814 25.6426H113.054L111.316 22.2633ZM109.888 19.4919L106.779 13.4529L103.672 19.4919H109.888Z" fill="#1D1D1B"/>
<path d="M133.636 25.6426L128.904 20.1675L124.256 25.6426H119.047L126.299 17.6216L119.411 9.87061H124.564L129.072 14.9856L133.496 9.87061H138.396L131.564 17.4862L138.872 25.6426H133.636Z" fill="#1D1D1B"/>
<path d="M149.5 0.256836H0.5V35.2568H149.5M144.833 31.5014H5.16687V4.01227H144.833V31.5014Z" fill="#85BE4C"/>
</svg>
