<svg width="151" height="28" viewBox="0 0 151 28" fill="none" xmlns="http://www.w3.org/2000/svg">
<mask id="mask0_240_3155" style="mask-type:luminance" maskUnits="userSpaceOnUse" x="0" y="0" width="151" height="28">
<path d="M150.5 0.256836H0.5V27.2568H150.5V0.256836Z" fill="white"/>
</mask>
<g mask="url(#mask0_240_3155)">
<path d="M80.5825 22.7285V4.7854H92.2324V8.95294H85.4403V22.7285H80.5825Z" fill="#ED1C24"/>
<path d="M106.89 22.7285V15.7011H99.6729V22.7285H94.8151V4.7854H99.6729V11.4816H106.89V4.7854H111.747V22.7285H106.89Z" fill="#ED1C24"/>
<path d="M139.938 22.7285V8.95294H134.264V4.7854H150.5V8.95294H144.798V22.7285H139.938Z" fill="#ED1C24"/>
<path d="M127.116 22.7261V12.5025L119.383 22.7261H115.321V4.78784H120.179V14.9051L127.782 4.78784H131.976V22.7261H127.116Z" fill="#ED1C24"/>
<path d="M52.6666 22.7285V12.065L47.8164 17.6984L42.9663 12.065V22.7285H38.1086V4.7854H42.9028L47.8164 10.9551L52.7302 4.7854H57.5242V22.7285H52.6666Z" fill="#ED1C24"/>
<path d="M66.7465 16.4177H71.2611L69.0038 10.7917L66.7465 16.4177ZM73.793 22.7259L72.7762 20.2119H65.224L64.2071 22.7259H59.3241L66.795 4.78516H71.2866L78.7601 22.7259H73.793Z" fill="#ED1C24"/>
<path d="M0.49472 8.43124C0.499424 6.26424 1.38695 4.18733 2.96298 2.65525C4.539 1.12316 6.67511 0.260754 8.9036 0.256836H28.3168V4.41201H8.9087C7.81368 4.41656 6.76482 4.84139 5.99029 5.5941C5.21577 6.34679 4.77823 7.36645 4.77288 8.43124L4.74746 15.4068C4.65885 16.3005 4.26835 17.1405 3.63692 17.7958C3.00551 18.4509 2.16875 18.8841 1.25732 19.0281L0.49472 19.1418V8.43124Z" fill="#ED1C24"/>
<path d="M0.495773 27.2568V23.1015H19.9089C21.0042 23.0964 22.053 22.6709 22.8275 21.9179C23.6019 21.1648 24.0394 20.1449 24.0447 19.0799V12.4603C24.0501 11.4999 24.4064 10.5726 25.0499 9.84408C25.6934 9.11553 26.5823 8.63314 27.5577 8.48307L28.3203 8.37183V19.0799C28.3156 21.2472 27.4282 23.3243 25.8522 24.8568C24.2763 26.3893 22.1402 27.2521 19.9114 27.2568H0.495773Z" fill="#ED1C24"/>
<path d="M16.9416 19.1565V13.7852L14.4098 16.7242L11.8805 13.7852V19.1565H8.52763V8.58691H11.7026L14.4098 11.9857L17.117 8.58691H20.292V19.1565H16.9416Z" fill="#ED1C24"/>
</g>
</svg>
