<svg width="21" height="15" viewBox="0 0 21 15" fill="none" xmlns="http://www.w3.org/2000/svg">
<path d="M2.6437 0.594238H18.5437C20.0437 0.594238 20.7997 1.30224 20.7997 2.74224V12.8462C20.7997 14.2742 20.0437 14.9942 18.5437 14.9942H2.6437C1.1437 14.9942 0.387695 14.2742 0.387695 12.8462V2.74224C0.387695 1.30224 1.1437 0.594238 2.6437 0.594238ZM10.5877 10.9142L18.6757 4.27824C18.9637 4.03824 19.1917 3.48624 18.8317 2.99424C18.4837 2.50224 17.8477 2.49024 17.4277 2.79024L10.5877 7.42224L3.7597 2.79024C3.3397 2.49024 2.7037 2.50224 2.3557 2.99424C1.9957 3.48624 2.2237 4.03824 2.5117 4.27824L10.5877 10.9142Z" fill="white"/>
</svg>
