<svg width="20" height="20" viewBox="0 0 20 20" fill="none" xmlns="http://www.w3.org/2000/svg">
<path d="M1.24375 3.18975L3.73984 0.695996C3.91592 0.519145 4.1252 0.378826 4.35567 0.283099C4.58614 0.187372 4.83325 0.138124 5.08281 0.138184C5.5914 0.138184 6.06953 0.337402 6.42812 0.695996L9.11406 3.38193C9.29091 3.55801 9.43123 3.76729 9.52696 3.99776C9.62269 4.22823 9.67193 4.47534 9.67187 4.7249C9.67187 5.2335 9.47266 5.71162 9.11406 6.07022L7.15 8.03428C7.60974 9.04762 8.24893 9.96948 9.03672 10.7554C9.82253 11.5451 10.7443 12.1866 11.7578 12.6491L13.7219 10.6851C13.898 10.5082 14.1072 10.3679 14.3377 10.2722C14.5682 10.1764 14.8153 10.1272 15.0648 10.1272C15.5734 10.1272 16.0516 10.3265 16.4102 10.6851L19.0984 13.3687C19.2755 13.5451 19.4159 13.7547 19.5117 13.9856C19.6074 14.2165 19.6565 14.464 19.6562 14.714C19.6562 15.2226 19.457 15.7007 19.0984 16.0593L16.607 18.5507C16.0352 19.1249 15.2453 19.4507 14.4344 19.4507C14.2633 19.4507 14.0992 19.4366 13.9375 19.4085C10.7781 18.8882 7.64453 17.2077 5.11562 14.6812C2.58906 12.1569 0.910936 9.02568 0.383593 5.85693C0.224218 4.88896 0.545311 3.89287 1.24375 3.18975Z" fill="white"/>
</svg>
