<svg width="32" height="32" viewBox="0 0 32 32" fill="none" xmlns="http://www.w3.org/2000/svg">
<g clip-path="url(#clip0_240_2916)">
<path d="M15.9961 8.98438L19.5134 10.8337L18.8416 6.91699L21.689 4.14209L17.7549 3.5708L15.9961 0L14.2373 3.5708L10.3032 4.14209L13.1506 6.91699L12.4788 10.8337L15.9961 8.98438Z" fill="#E65418"/>
<path d="M27.8796 9.94556L26.1208 6.38159L24.3621 9.94556L20.4299 10.5168L23.2754 13.291L22.6035 17.2085L26.1208 15.3591L29.6401 17.2085L28.9663 13.291L31.9961 10.5168L27.8796 9.94556Z" fill="#E65418"/>
<path d="M3.02588 13.291L2.35205 17.2085L5.87134 15.3591L9.38867 17.2085L8.7168 13.291L11.5623 10.5168L7.63013 9.94556L5.87134 6.38159L4.11255 9.94556L-0.00390625 10.5168L3.02588 13.291Z" fill="#E65418"/>
<path d="M20.6836 17.875C20.6836 15.2905 18.5806 13.1875 15.9961 13.1875C13.4116 13.1875 11.3086 15.2905 11.3086 17.875C11.3086 20.4595 13.4116 22.5625 15.9961 22.5625C18.5806 22.5625 20.6836 20.4595 20.6836 17.875Z" fill="#E65418"/>
<path d="M9.43359 29.125V32H22.5586V29.125C22.5586 25.5068 19.6143 22.5625 15.9961 22.5625C12.3779 22.5625 9.43359 25.5068 9.43359 29.125Z" fill="#E65418"/>
<path d="M30.0586 31C30.0586 28.4155 27.9556 26.3125 25.3711 26.3125C24.8862 26.3125 24.4277 26.4077 23.9875 26.5449C24.2529 27.3633 24.4336 28.2195 24.4336 29.125V32H30.0586V31Z" fill="#E65418"/>
<path d="M29.1211 22.5625C29.1211 20.4944 27.4392 18.8125 25.3711 18.8125C23.303 18.8125 21.6211 20.4944 21.6211 22.5625C21.6211 22.6819 21.6453 22.7947 21.6562 22.9111C22.5808 23.7539 23.3264 24.7825 23.8054 25.959C24.2834 26.1804 24.8105 26.3125 25.3711 26.3125C27.4392 26.3125 29.1211 24.6306 29.1211 22.5625Z" fill="#E65418"/>
<path d="M10.3359 22.9111C10.3469 22.7947 10.3711 22.6819 10.3711 22.5625C10.3711 20.4944 8.68921 18.8125 6.62109 18.8125C4.55298 18.8125 2.87109 20.4944 2.87109 22.5625C2.87109 24.6306 4.55298 26.3125 6.62109 26.3125C7.18164 26.3125 7.70874 26.1804 8.18677 25.9592C8.66577 24.7825 9.41138 23.7539 10.3359 22.9111Z" fill="#E65418"/>
<path d="M1.93359 31V32H7.55859V29.125C7.55859 28.2195 7.73926 27.3633 8.00464 26.5449C7.56445 26.4077 7.10596 26.3125 6.62109 26.3125C4.03662 26.3125 1.93359 28.4155 1.93359 31Z" fill="#E65418"/>
</g>
<defs>
<clipPath id="clip0_240_2916">
<rect width="32" height="32" fill="white" transform="translate(-0.00390625)"/>
</clipPath>
</defs>
</svg>
