<svg width="36" height="32" viewBox="0 0 36 32" fill="none" xmlns="http://www.w3.org/2000/svg">
<path d="M18.0949 26.8338C17.3927 27.0062 16.728 27.0637 16.0583 26.9063C15.5085 26.7776 15.0249 26.5264 14.6251 26.1266C12.8996 24.4048 11.1678 22.6893 9.456 20.955C8.6101 20.0978 8.44142 19.0358 8.65508 17.8875C8.67757 17.77 8.70506 17.6538 8.7388 17.4902C8.58886 17.4902 8.47141 17.4902 8.35271 17.4902C7.50306 17.4902 6.65341 17.4952 5.80501 17.4889C4.79418 17.4814 4.25691 16.6468 4.70047 15.7359C5.46766 14.1615 6.24358 12.5922 7.052 11.0391C7.51056 10.1582 8.27024 9.70714 9.28232 9.70964C10.4631 9.71338 11.6426 9.69839 12.8234 9.71838C13.132 9.72338 13.3219 9.61467 13.5243 9.39602C15.2286 7.54553 16.9791 5.74378 19.0395 4.27314C21.6622 2.40141 24.5273 1.07571 27.6859 0.414738C29.3852 0.059885 31.1058 -0.0925499 32.8426 0.0573879C34.2807 0.181087 35.469 1.41433 35.5464 2.89246C35.7039 5.91871 35.1891 8.83375 34.0308 11.6301C32.7663 14.6826 30.9496 17.3702 28.6106 19.7005C27.7672 20.5401 26.895 21.3523 26.0466 22.1882C25.9517 22.2819 25.8867 22.4506 25.8854 22.5843C25.8729 23.7863 25.8767 24.9883 25.8792 26.1903C25.8817 27.3036 25.3794 28.1108 24.3923 28.6093C22.9167 29.354 21.436 30.0887 19.9554 30.8234C18.9133 31.3407 18.0937 30.8259 18.0924 29.6589C18.0924 28.843 18.0924 28.027 18.0924 27.2111V26.8338H18.0949ZM31.3457 9.10489C31.3507 6.41225 29.2128 4.2519 26.5189 4.22816C23.8525 4.20442 21.6534 6.38601 21.6472 9.0599C21.6409 11.7475 23.7851 13.9429 26.4252 13.9479C29.1741 13.9541 31.3407 11.8213 31.3469 9.10364L31.3457 9.10489Z" fill="#E65418"/>
<path d="M0.574219 30.9318C0.574219 30.9318 2.40846 17.616 9.53675 24.4719C15.5605 30.2645 2.45219 32.686 0.574219 30.9318Z" fill="#E65418"/>
</svg>
