<svg width="25" height="25" viewBox="0 0 25 25" fill="none" xmlns="http://www.w3.org/2000/svg">
<path d="M0.6875 12.7568C0.6875 9.62397 1.93203 6.61941 4.1473 4.40414C6.36257 2.18886 9.36713 0.944336 12.5 0.944336C15.6329 0.944336 18.6374 2.18886 20.8527 4.40414C23.068 6.61941 24.3125 9.62397 24.3125 12.7568C24.3125 15.8897 23.068 18.8943 20.8527 21.1095C18.6374 23.3248 15.6329 24.5693 12.5 24.5693C9.36713 24.5693 6.36257 23.3248 4.1473 21.1095C1.93203 18.8943 0.6875 15.8897 0.6875 12.7568ZM17.3161 10.823C17.4746 10.6645 17.5636 10.4496 17.5636 10.2256C17.5636 10.0015 17.4746 9.78664 17.3161 9.62821C17.1577 9.46978 16.9428 9.38077 16.7188 9.38077C16.4947 9.38077 16.2798 9.46978 16.1214 9.62821L11.2344 14.5169L8.87862 12.1595C8.80018 12.081 8.70705 12.0188 8.60455 11.9763C8.50205 11.9339 8.39219 11.912 8.28125 11.912C8.17031 11.912 8.06045 11.9339 7.95795 11.9763C7.85545 12.0188 7.76232 12.081 7.68388 12.1595C7.60543 12.2379 7.5432 12.331 7.50074 12.4335C7.45829 12.536 7.43643 12.6459 7.43643 12.7568C7.43643 12.8678 7.45829 12.9776 7.50074 13.0801C7.5432 13.1826 7.60543 13.2758 7.68388 13.3542L10.637 16.3073C10.7154 16.3859 10.8085 16.4483 10.911 16.4908C11.0135 16.5333 11.1234 16.5552 11.2344 16.5552C11.3454 16.5552 11.4552 16.5333 11.5578 16.4908C11.6603 16.4483 11.7534 16.3859 11.8317 16.3073L17.3161 10.823Z" fill="white"/>
</svg>
