<svg width="29" height="29" viewBox="0 0 29 29" fill="none" xmlns="http://www.w3.org/2000/svg">
<path fill-rule="evenodd" clip-rule="evenodd" d="M1.65726 11.671C0.227204 13.0991 0.227204 15.4146 1.65726 16.8426L3.61836 18.8009V21.5706C3.61836 23.5901 5.25789 25.2274 7.28029 25.2274H10.0537L12.0148 27.1857C13.4448 28.6139 15.7634 28.6139 17.1935 27.1857L19.1546 25.2274H21.928C23.9505 25.2274 25.59 23.5901 25.59 21.5706V18.8009L27.5511 16.8426C28.9811 15.4146 28.9811 13.0991 27.5511 11.671L25.59 9.71266V6.94312C25.59 4.92352 23.9505 3.28626 21.928 3.28626H19.1546L17.1935 1.32793C15.7634 -0.100195 13.4448 -0.100195 12.0148 1.32793L10.0537 3.28626H7.28029C5.25789 3.28626 3.61836 4.92352 3.61836 6.94312V9.71266L1.65726 11.671ZM8.55886 15.4455L11.5132 18.4604C12.0098 18.9504 12.7918 18.9504 13.3008 18.4604L20.6495 10.9983C21.1336 10.5084 21.1336 9.7169 20.6495 9.22698L20.5626 9.13904C20.0785 8.64901 19.284 8.64901 18.7999 9.13904L15.6034 12.3802L12.407 15.6213L10.4084 13.5861C9.92432 13.0962 9.12987 13.0962 8.64575 13.5861L8.55886 13.6741C8.07475 14.1641 8.07475 14.9554 8.55886 15.4455Z" fill="#1D2E47"/>
<path d="M11.5132 18.4604L8.55886 15.4455C8.07475 14.9554 8.07475 14.1641 8.55886 13.6741L8.64575 13.5861C9.12987 13.0962 9.92432 13.0962 10.4084 13.5861L12.407 15.6213L15.6034 12.3802L18.7999 9.13904C19.284 8.64901 20.0785 8.64901 20.5626 9.13904L20.6495 9.22698C21.1336 9.7169 21.1336 10.5084 20.6495 10.9983L13.3008 18.4604C12.7918 18.9504 12.0098 18.9504 11.5132 18.4604Z" fill="white" fill-opacity="0.01"/>
</svg>
