<svg width="28" height="29" viewBox="0 0 28 29" fill="none" xmlns="http://www.w3.org/2000/svg">
<path d="M23.6483 19.2326L24.4708 14.4726C24.5191 14.1936 24.5058 13.9074 24.4319 13.6341C24.3581 13.3608 24.2254 13.1069 24.0431 12.8902C23.8609 12.6735 23.6335 12.4993 23.3769 12.3796C23.1203 12.26 22.8406 12.1979 22.5575 12.1976H16.513C16.3719 12.1976 16.2325 12.1669 16.1045 12.1077C15.9765 12.0484 15.8629 11.962 15.7717 11.8544C15.6804 11.7468 15.6137 11.6207 15.5761 11.4847C15.5385 11.3488 15.531 11.2063 15.554 11.0671L16.3275 6.34791C16.4524 5.58165 16.4167 4.79778 16.2225 4.04608C16.1387 3.73575 15.978 3.45155 15.7553 3.21971C15.5327 2.98787 15.2552 2.81587 14.9485 2.71958L14.7793 2.66475C14.3968 2.54236 13.982 2.57074 13.6197 2.74408C13.223 2.93541 12.9337 3.28425 12.8263 3.69841L12.271 5.83808C12.0945 6.51907 11.8376 7.17664 11.5057 7.79691C11.0215 8.70341 10.2725 9.43025 9.49316 10.1011L7.81432 11.5477C7.58142 11.749 7.39952 12.0026 7.28352 12.2877C7.16753 12.5728 7.12074 12.8814 7.14699 13.1881L8.09433 24.1466C8.13608 24.6312 8.35804 25.0826 8.71638 25.4116C9.07472 25.7405 9.54338 25.9232 10.0298 25.9234H15.4525C19.5148 25.9234 22.981 23.0931 23.6483 19.2326Z" fill="#1D2E47"/>
<path fill-rule="evenodd" clip-rule="evenodd" d="M3.46264 11.3226C3.68811 11.3128 3.90866 11.3904 4.07824 11.5393C4.24782 11.6882 4.35329 11.8969 4.37264 12.1218L5.5043 25.2304C5.52347 25.4257 5.50265 25.6227 5.4431 25.8096C5.38355 25.9965 5.28654 26.1693 5.15797 26.3174C5.0294 26.4656 4.87199 26.5859 4.69534 26.6712C4.51869 26.7565 4.32652 26.8048 4.13055 26.8133C3.93459 26.8218 3.73895 26.7903 3.55559 26.7206C3.37222 26.651 3.20498 26.5447 3.06408 26.4082C2.92317 26.2718 2.81156 26.108 2.73607 25.927C2.66057 25.7459 2.62277 25.5514 2.62497 25.3553V12.1964C2.62506 11.9709 2.71224 11.7541 2.86832 11.5913C3.02439 11.4285 3.2373 11.3322 3.46264 11.3226Z" fill="#1D2E47"/>
</svg>
