<svg width="22" height="21" viewBox="0 0 22 21" fill="none" xmlns="http://www.w3.org/2000/svg">
<path d="M11 0.083333C5.01996 0.083333 0.166626 4.75 0.166626 10.5C0.166626 16.25 5.01996 20.9167 11 20.9167C16.98 20.9167 21.8333 16.25 21.8333 10.5C21.8333 4.75 16.98 0.083333 11 0.083333ZM16.0266 7.16667C15.8641 8.8125 15.16 12.8125 14.8025 14.6563C14.6508 15.4375 14.3475 15.6979 14.0658 15.7292C13.4375 15.7813 12.9608 15.3333 12.3541 14.9479C11.4008 14.3438 10.8591 13.9688 9.93829 13.3854C8.86579 12.7083 9.55912 12.3333 10.1766 11.7292C10.3391 11.5729 13.1125 9.14583 13.1666 8.92708C13.1741 8.89395 13.1731 8.85955 13.1637 8.82688C13.1543 8.7942 13.1367 8.76424 13.1125 8.73958C13.0475 8.6875 12.9608 8.70833 12.885 8.71875C12.7875 8.73958 11.2708 9.70833 8.31329 11.625C7.87996 11.9063 7.48996 12.0521 7.14329 12.0417C6.75329 12.0312 6.01663 11.8333 5.46413 11.6562C4.78163 11.4479 4.25079 11.3333 4.29413 10.9688C4.31579 10.7812 4.58663 10.5938 5.09579 10.3958C8.25913 9.07292 10.3608 8.19792 11.4116 7.78125C14.4233 6.57292 15.0408 6.36458 15.4525 6.36458C15.5391 6.36458 15.745 6.38542 15.875 6.48958C15.9833 6.57292 16.0158 6.6875 16.0266 6.77083C16.0158 6.83333 16.0375 7.02083 16.0266 7.16667Z" fill="white"/>
</svg>
