<svg width="101" height="44" viewBox="0 0 101 44" fill="none" xmlns="http://www.w3.org/2000/svg">
<g clip-path="url(#clip0_240_3179)">
<path d="M100.218 37.4256C100.309 37.3541 100.382 37.263 100.431 37.1595C100.483 37.0166 100.507 36.8651 100.5 36.7135V22.0979C100.506 21.9438 100.483 21.7899 100.431 21.6444C100.384 21.5439 100.31 21.4573 100.218 21.3933C99.9911 21.2259 99.4682 21.1422 98.6489 21.1422C97.8295 21.1422 97.2977 21.2259 97.0534 21.3933C96.961 21.4572 96.8873 21.5438 96.8397 21.6444C96.7877 21.7899 96.7644 21.9438 96.771 22.0979V36.7135C96.7591 36.8467 96.7784 36.9807 96.8274 37.1054C96.8763 37.2301 96.9536 37.3422 97.0534 37.433C97.2799 37.6004 97.8117 37.6842 98.6489 37.6842C99.486 37.6842 100.009 37.598 100.218 37.4256ZM89.0993 37.508C89.8785 37.2627 90.5946 36.8549 91.1985 36.3125C91.7414 35.8105 92.1549 35.1887 92.4046 34.4987C92.6652 33.7679 92.7944 32.9982 92.7863 32.2239V22.0791C92.803 21.948 92.7886 21.8148 92.7442 21.69C92.6999 21.5651 92.6267 21.4521 92.5306 21.3596C92.2761 21.1922 91.7532 21.1085 90.9619 21.1085C90.1705 21.1085 89.6387 21.1922 89.3664 21.3596C89.2701 21.4202 89.1944 21.5076 89.1489 21.6107C89.1019 21.7572 89.0813 21.9106 89.0878 22.0641V32.1827C89.0844 32.5998 89.0122 33.0136 88.8741 33.4081C88.7064 33.857 88.3743 34.2285 87.9428 34.45C87.355 34.7508 86.6964 34.8931 86.0344 34.8622C85.5613 34.8728 85.0895 34.8082 84.6374 34.6711C84.2851 34.5628 83.9627 34.3769 83.6947 34.1277C83.4501 33.8899 83.2669 33.5983 83.1603 33.277C83.0426 32.9239 82.9846 32.5542 82.9886 32.1827V22.0641C83.0053 21.933 82.9909 21.7998 82.9465 21.675C82.9022 21.5502 82.829 21.4371 82.7328 21.3446C82.4784 21.1772 81.9555 21.0935 81.1642 21.0935C80.3728 21.0935 79.841 21.1772 79.5687 21.3446C79.4724 21.4052 79.3967 21.4926 79.3512 21.5957C79.3042 21.7422 79.2836 21.8957 79.2901 22.0491V32.1977C79.282 32.9719 79.4112 33.7416 79.6718 34.4725C79.9215 35.1625 80.3349 35.7842 80.8779 36.2863C81.4817 36.8286 82.1978 37.2364 82.9771 37.4818C84.9695 38.0571 87.0873 38.0649 89.084 37.5043L89.0993 37.508ZM70.897 37.4256C70.9872 37.3551 71.058 37.2637 71.1031 37.1595C71.1504 37.0156 71.1711 36.8646 71.1641 36.7135V24.234H74.8779C75.1032 24.2398 75.3283 24.2133 75.5458 24.1553C75.6324 24.1275 75.7124 24.0831 75.7813 24.0245C75.8501 23.9659 75.9063 23.8945 75.9466 23.8143C76.0788 23.5306 76.1651 23.2284 76.2023 22.9186C76.2558 22.6152 76.2864 22.3083 76.2939 22.0004C76.2995 21.8527 76.2828 21.7049 76.2443 21.562C76.2115 21.4584 76.1426 21.3695 76.0496 21.3109C75.9706 21.2661 75.884 21.2357 75.7939 21.2209C75.6334 21.1979 75.4713 21.1879 75.3092 21.1909H63.7252C63.4999 21.1851 63.2748 21.2116 63.0573 21.2696C62.8881 21.3317 62.7509 21.457 62.6756 21.6182C62.5479 21.8653 62.4615 22.1311 62.4199 22.4052C62.3584 22.7391 62.3278 23.0777 62.3283 23.417C62.3229 23.5672 62.3396 23.7174 62.3779 23.863C62.4123 23.969 62.4858 24.0586 62.584 24.1141C62.8179 24.2145 63.0739 24.2558 63.3283 24.234H67.4657V36.7173C67.4504 36.8507 67.4682 36.9857 67.5173 37.1109C67.5665 37.2362 67.6456 37.3479 67.7481 37.4368C67.9746 37.6042 68.5064 37.6879 69.3435 37.6879C70.14 37.6904 70.6578 37.603 70.897 37.4256Z" fill="#D40E14"/>
<path d="M3.09925 12.2341H16.1145C17.4008 12.2341 18.3512 12.6314 18.729 14.4115C19.1527 16.3902 18.9847 17.7843 16.7099 17.923L12.626 18.2191C15.6336 36.8746 33.2366 42.9532 42.7786 22.8623C44.3626 19.5382 44.8817 18.9311 46.6145 19.3546C48.9657 19.928 49.2863 21.1235 48.1412 24.4663C39.8779 49.2305 12.0611 51.7114 6.60306 18.635L3.28627 18.8711C0.583976 19.0623 0.477112 16.8249 0.477112 15.5807C0.500013 13.1261 1.42749 12.2341 3.09925 12.2341Z" fill="#D40E14"/>
<path d="M50.416 9.73827C53.0826 9.73827 55.2443 7.61578 55.2443 4.99755C55.2443 2.37933 53.0826 0.256836 50.416 0.256836C47.7494 0.256836 45.5878 2.37933 45.5878 4.99755C45.5878 7.61578 47.7494 9.73827 50.416 9.73827Z" fill="#D40E14"/>
</g>
<defs>
<clipPath id="clip0_240_3179">
<rect width="100" height="43" fill="white" transform="translate(0.5 0.256836)"/>
</clipPath>
</defs>
</svg>
