<svg width="22" height="21" viewBox="0 0 22 21" fill="none" xmlns="http://www.w3.org/2000/svg">
<path d="M11.0011 0.083333C16.9843 0.083333 21.8344 4.74687 21.8344 10.5C21.8344 16.2531 16.9843 20.9167 11.0011 20.9167C9.08656 20.9198 7.20571 20.4327 5.55191 19.5052L0.172075 20.9167L1.63674 15.7417C0.671446 14.151 0.164386 12.3417 0.167741 10.5C0.167741 4.74687 5.01783 0.083333 11.0011 0.083333ZM7.30908 5.60417L7.09241 5.6125C6.95232 5.62178 6.81545 5.65716 6.68941 5.71667C6.57195 5.78074 6.46468 5.86073 6.37091 5.95417C6.24091 6.07187 6.16724 6.17396 6.08816 6.27292C5.68746 6.77386 5.47171 7.38887 5.47499 8.02083C5.47716 8.53125 5.61582 9.02812 5.83249 9.49271C6.27557 10.4323 7.00466 11.4271 7.96666 12.349C8.19849 12.5708 8.42599 12.7937 8.67083 13.001C9.86621 14.0129 11.2906 14.7427 12.8308 15.1323L13.4462 15.2229C13.6466 15.2333 13.847 15.2187 14.0485 15.2094C14.3639 15.1934 14.6719 15.1113 14.9509 14.9688C15.0927 14.8983 15.2311 14.8218 15.3658 14.7396C15.3658 14.7396 15.4117 14.7097 15.5012 14.6458C15.6475 14.5417 15.7374 14.4677 15.8587 14.3458C15.9497 14.2556 16.0256 14.1507 16.0862 14.0312C16.1707 13.8615 16.2552 13.5375 16.2899 13.2677C16.3159 13.0615 16.3083 12.949 16.3051 12.8792C16.3007 12.7677 16.2043 12.6521 16.0992 12.6031L15.4687 12.3312C15.4687 12.3312 14.5262 11.9365 13.9499 11.6844C13.8896 11.6591 13.825 11.6446 13.7592 11.6417C13.6851 11.6342 13.6102 11.6422 13.5395 11.665C13.4689 11.6878 13.4042 11.725 13.3497 11.774C13.3443 11.7719 13.2717 11.8312 12.4885 12.7437C12.4435 12.8018 12.3816 12.8457 12.3106 12.8698C12.2396 12.894 12.1627 12.8972 12.0898 12.8792C12.0192 12.8611 11.9501 12.8381 11.8829 12.8104C11.7486 12.7562 11.702 12.7354 11.6099 12.6979C10.9879 12.4374 10.4122 12.0849 9.90366 11.6531C9.76716 11.5385 9.64041 11.4135 9.51041 11.2927C9.08424 10.9002 8.71281 10.4562 8.40541 9.97187L8.34149 9.87292C8.29628 9.80604 8.2592 9.73439 8.23099 9.65937C8.18983 9.50625 8.29708 9.38333 8.29708 9.38333C8.29708 9.38333 8.56032 9.10625 8.68274 8.95625C8.80191 8.81042 8.90266 8.66875 8.96766 8.56771C9.09549 8.36979 9.13558 8.16667 9.06841 8.00937C8.76508 7.29687 8.45163 6.58819 8.12807 5.88333C8.06416 5.74375 7.87458 5.64375 7.70233 5.62396C7.64383 5.61701 7.58532 5.61146 7.52682 5.60729C7.38136 5.59927 7.23551 5.60066 7.09024 5.61146L7.30908 5.60417Z" fill="white"/>
</svg>
