<svg width="61" height="62" viewBox="0 0 61 62" fill="none" xmlns="http://www.w3.org/2000/svg">
<g clip-path="url(#clip0_240_2965)">
<path d="M59.7291 31C60.4306 31 61 30.4306 61 29.7291V6.85413C61 3.35044 58.1496 0.5 54.6459 0.5H6.35413C2.85044 0.5 0 3.35044 0 6.85413V42.4375C0 45.9412 2.85044 48.7916 6.35413 48.7916H20.3333V54.4659L17.0863 56.6301C16.7331 56.8665 16.5208 57.263 16.5208 57.6875V58.9584C16.5208 60.3601 17.6607 61.5 19.0624 61.5H41.9374C43.3391 61.5 44.479 60.3601 44.479 58.9584V57.6875C44.479 57.263 44.2668 56.8665 43.9134 56.6301L40.6665 54.4659V52.6041C40.6665 51.9026 40.0971 51.3333 39.3956 51.3333C38.6941 51.3333 38.125 51.9026 38.125 52.6041V55.1458C38.125 55.5703 38.3372 55.9668 38.6906 56.2031L41.9375 58.3674V58.9584H19.0625V58.3674L22.3094 56.2032C22.6627 55.9669 22.875 55.5704 22.875 55.1459V48.7917H54.6459C58.1496 48.7916 61 45.9412 61 42.4375V36.0834C61 35.3819 60.4306 34.8125 59.7291 34.8125H7.625C6.9235 34.8125 6.35413 35.3819 6.35413 36.0834C6.35413 36.7849 6.9235 37.3541 7.625 37.3541H58.4584V42.4375C58.4584 44.5395 56.7479 46.25 54.6459 46.25H6.35413C4.25213 46.25 2.54163 44.5395 2.54163 42.4375V6.85413C2.54163 4.75213 4.25213 3.04163 6.35413 3.04163H54.6458C56.7477 3.04163 58.4583 4.75213 58.4583 6.85413V29.7291C58.4584 30.4306 59.0276 31 59.7291 31Z" fill="#E65418"/>
<path d="M21.6041 17.0209C22.3056 17.0209 22.875 16.4515 22.875 15.75V14.4791C22.875 12.3771 21.1645 10.6666 19.0625 10.6666H13.9791C11.8771 10.6666 10.1666 12.3771 10.1666 14.4791V17.0208C10.1666 19.1228 11.8771 20.8333 13.9791 20.8333H19.0625C19.7627 20.8333 20.3334 21.4038 20.3334 22.1041V24.6458C20.3334 25.3459 19.7628 25.9166 19.0625 25.9166H13.9791C13.2789 25.9166 12.7083 25.3461 12.7083 24.6458V23.375C12.7083 22.6735 12.1389 22.1041 11.4374 22.1041C10.7359 22.1041 10.1666 22.6735 10.1666 23.375V24.6459C10.1666 26.7479 11.8771 28.4584 13.9791 28.4584H19.0625C21.1645 28.4584 22.875 26.7479 22.875 24.6459V22.1042C22.875 20.0022 21.1645 18.2917 19.0625 18.2917H13.9791C13.2789 18.2917 12.7083 17.7212 12.7083 17.0209V14.4792C12.7083 13.7791 13.2788 13.2084 13.9791 13.2084H19.0625C19.7627 13.2084 20.3334 13.7789 20.3334 14.4792V15.75C20.3334 16.4515 20.9026 17.0209 21.6041 17.0209Z" fill="#E65418"/>
<path d="M34.3125 20.8334C35.014 20.8334 35.5834 20.264 35.5834 19.5625C35.5834 18.861 35.014 18.2916 34.3125 18.2916H27.9584V14.4791C27.9584 13.7789 28.5289 13.2083 29.2292 13.2083H34.3125C35.014 13.2083 35.5834 12.6389 35.5834 11.9374C35.5834 11.2359 35.014 10.6666 34.3125 10.6666H29.2291C27.1271 10.6666 25.4166 12.3771 25.4166 14.4791V24.6458C25.4166 26.7478 27.1271 28.4583 29.2291 28.4583H34.3125C35.014 28.4583 35.5834 27.8889 35.5834 27.1874C35.5834 26.4859 35.014 25.9165 34.3125 25.9165H29.2291C28.5289 25.9165 27.9583 25.3459 27.9583 24.6456V20.8331H34.3125V20.8334Z" fill="#E65418"/>
<path d="M47.0209 10.6666H41.9375C39.8355 10.6666 38.125 12.3771 38.125 14.4791V24.6458C38.125 26.7478 39.8355 28.4583 41.9375 28.4583H47.0209C49.1229 28.4583 50.8334 26.7478 50.8334 24.6458V14.4791C50.8334 12.3772 49.1228 10.6666 47.0209 10.6666ZM48.2916 24.6459C48.2916 25.3461 47.7211 25.9167 47.0208 25.9167H41.9375C41.2373 25.9167 40.6666 25.3462 40.6666 24.6459V14.4792C40.6666 13.7791 41.2372 13.2084 41.9375 13.2084H47.0209C47.7211 13.2084 48.2917 13.7789 48.2917 14.4792V24.6459H48.2916Z" fill="#E65418"/>
</g>
<defs>
<clipPath id="clip0_240_2965">
<rect width="61" height="61" fill="white" transform="translate(0 0.5)"/>
</clipPath>
</defs>
</svg>
