<svg width="65" height="49" viewBox="0 0 65 49" fill="none" xmlns="http://www.w3.org/2000/svg">
<path fill-rule="evenodd" clip-rule="evenodd" d="M59.5853 39.5C58.9874 39.5 58.5021 39.0147 58.5021 38.4167V3.75001C58.5021 3.15418 58.0168 2.66668 57.4189 2.66668H7.59075C6.99281 2.66668 6.50753 3.15418 6.50753 3.75001V38.4167C6.50753 39.0147 6.02225 39.5 5.42432 39.5C4.82638 39.5 4.3411 39.0147 4.3411 38.4167V3.75001C4.3411 1.95818 5.79912 0.500009 7.59076 0.500009H57.4189C59.2106 0.500009 60.6686 1.95818 60.6686 3.75001V38.4167C60.6686 39.0147 60.1833 39.5 59.5854 39.5H59.5853Z" fill="#E65418"/>
<path fill-rule="evenodd" clip-rule="evenodd" d="M59.5833 48.1625H5.41667C2.42884 48.1625 0 45.7336 0 42.7458C0 42.1478 0.48533 41.6625 1.08333 41.6625H24.9167C25.5147 41.6625 26 42.1478 26 42.7458C26 43.3438 25.5147 43.8291 24.9167 43.8291H2.35299C2.79932 45.0901 4.00399 45.9958 5.41666 45.9958H59.5833C60.996 45.9958 62.2007 45.0901 62.647 43.8291H40.0833C39.4853 43.8291 39 43.3438 39 42.7458C39 42.1478 39.4853 41.6625 40.0833 41.6625H63.9167C64.5147 41.6625 65 42.1478 65 42.7458C65 45.7336 62.5712 48.1625 59.5833 48.1625Z" fill="#E65418"/>
<path fill-rule="evenodd" clip-rule="evenodd" d="M22.7471 31.4763C22.4937 31.4763 22.2403 31.3874 22.0345 31.2076L13.371 23.626C13.135 23.4202 13.0007 23.1256 13.0007 22.8115C13.0007 22.4974 13.135 22.2028 13.371 21.997L22.0345 14.4153C22.4828 14.0189 23.1651 14.0622 23.5636 14.5171C23.9578 14.9677 23.9123 15.65 23.4618 16.0443L15.7275 22.8115L23.4596 29.5787C23.9101 29.9729 23.9556 30.6553 23.5614 31.1058C23.347 31.3506 23.0481 31.4763 22.7471 31.4763L22.7471 31.4763Z" fill="white"/>
<path fill-rule="evenodd" clip-rule="evenodd" d="M29.2474 33.6494C29.1347 33.6494 29.0198 33.632 28.9049 33.5952C28.3369 33.4044 28.0313 32.7911 28.2199 32.2232L34.7233 12.7171C34.9119 12.1492 35.521 11.8393 36.0933 12.0322C36.6613 12.2229 36.967 12.8363 36.7784 13.4041L30.275 32.9103C30.1232 33.3611 29.7005 33.6494 29.2474 33.6494Z" fill="#E65418"/>
<path fill-rule="evenodd" clip-rule="evenodd" d="M42.2478 31.4788C41.9465 31.4788 41.6475 31.3532 41.4329 31.1084C41.0385 30.6579 41.084 29.9755 41.5348 29.5813L49.2717 22.8145L41.5348 16.0476C41.084 15.6534 41.0385 14.9711 41.4329 14.5205C41.8273 14.0656 42.5122 14.0245 42.963 14.4187L51.6317 22C51.8658 22.2058 52.0001 22.5004 52.0001 22.8145C52.0001 23.1285 51.8658 23.4231 51.6296 23.6289L42.9608 31.2102C42.7549 31.39 42.5014 31.4788 42.2478 31.4788H42.2478Z" fill="white"/>
</svg>
