<svg width="32" height="48" viewBox="0 0 32 48" fill="none" xmlns="http://www.w3.org/2000/svg">
<path fill-rule="evenodd" clip-rule="evenodd" d="M20.832 17.9287C21.5815 18.1447 22.3691 17.7255 22.5978 16.9762C22.8392 16.1506 22.9662 15.2869 22.9662 14.4105C22.9662 9.43171 18.9138 5.36736 13.9213 5.36736C8.94147 5.36736 4.87633 9.41901 4.87633 14.4105C4.87633 15.5155 5.06689 16.5951 5.4607 17.6112C5.67666 18.1828 6.21021 18.5257 6.78186 18.5257C6.947 18.5257 7.11217 18.5003 7.2773 18.4368C8.01411 18.1574 8.38251 17.3445 8.10304 16.6078C7.83626 15.9093 7.69651 15.1726 7.69651 14.4105C7.69651 10.9939 10.4786 8.1997 13.9086 8.1997C17.3258 8.1997 20.1206 10.9812 20.1206 14.4105C20.1206 15.0075 20.0317 15.6044 19.8665 16.176C19.6506 16.9254 20.0825 17.7128 20.832 17.9287L20.832 17.9287Z" fill="#E65418"/>
<path fill-rule="evenodd" clip-rule="evenodd" d="M31.5658 28.901C31.5658 28.8398 31.5556 28.7785 31.5352 28.7173C31.076 26.727 29.7492 25.4817 28.0754 25.4817C27.5855 25.4817 27.116 25.5838 26.6874 25.7675C26.2281 24.3794 24.9217 23.3689 23.3806 23.3689C22.8091 23.3689 22.2682 23.5118 21.7987 23.7567C21.2272 22.6136 20.0433 21.8378 18.6859 21.8378C18.2572 21.8378 17.849 21.9195 17.4714 22.0522V17.8061C17.4714 15.8873 15.9099 14.3154 13.9809 14.3154C12.0622 14.3154 10.4905 15.8771 10.4905 17.8061V32.3612L9.22493 30.1667C8.75545 29.3195 8.01042 28.7377 7.11229 28.5132C6.24477 28.2988 5.31603 28.4519 4.55058 28.9316C3.26463 29.7482 2.85639 31.5752 3.49936 33.5655C3.49936 33.5758 3.50957 33.586 3.50957 33.5962C3.64225 33.9942 6.91837 43.2723 10.8171 47.1611C11.0416 47.3857 11.3274 47.4979 11.6233 47.4979C11.9193 47.4979 12.2051 47.3857 12.4296 47.1611C12.8787 46.712 12.8685 45.9975 12.4296 45.5484C8.95957 42.0883 5.80592 33.2389 5.66303 32.8511C5.37727 31.9529 5.4283 31.0751 5.77531 30.8505C6.01004 30.7076 6.28561 30.6566 6.55097 30.7178C6.83674 30.7893 7.06127 30.9832 7.23477 31.2894L10.6334 37.1788C10.8885 37.6279 11.4192 37.8422 11.9091 37.7096C12.4092 37.5769 12.7562 37.1278 12.7562 36.6072V17.8163C12.7562 17.1529 13.2971 16.6017 13.9707 16.6017C14.6341 16.6017 15.1852 17.1427 15.1852 17.8163V30.8505C15.1852 31.4834 15.6955 31.9835 16.3181 31.9835C16.9509 31.9835 17.451 31.4731 17.451 30.8505V25.2265C17.451 25.2163 17.4612 25.2061 17.4612 25.1959C17.5224 24.5835 18.0429 24.114 18.6655 24.114C19.3288 24.114 19.88 24.655 19.88 25.3286V26.8699V28.0845V31.269C19.88 31.9018 20.3903 32.402 21.0128 32.402C21.6456 32.402 22.1457 31.8916 22.1457 31.269V28.0845V26.8699C22.1457 26.2064 22.6866 25.6552 23.3602 25.6552C24.0236 25.6552 24.5747 26.1962 24.5747 26.8699V28.3907C24.5747 28.4621 24.5849 28.5336 24.5951 28.605C24.5849 28.7275 24.5747 28.85 24.5747 28.9827V31.2792C24.5747 31.912 25.085 32.4122 25.7076 32.4122C26.3302 32.4122 26.8405 31.9018 26.8405 31.2792V28.9827C26.8405 28.3192 27.3814 27.7681 28.055 27.7681C28.8204 27.7681 29.1572 28.6765 29.2695 29.146C29.3307 30.2585 29.8512 40.6083 27.9121 45.3647C27.6774 45.9465 27.9529 46.6099 28.5346 46.8447C28.6775 46.9059 28.8204 46.9264 28.9633 46.9264C29.4124 46.9264 29.841 46.661 30.0145 46.2221C32.2803 40.7308 31.5964 29.3808 31.5658 28.901V28.901Z" fill="#E65418"/>
<path fill-rule="evenodd" clip-rule="evenodd" d="M2.80762 21.5267C3.02361 21.5267 3.2523 21.4759 3.4556 21.3742C4.15439 21.0185 4.42121 20.1673 4.06546 19.4685C3.25232 17.8931 2.84573 16.2033 2.84573 14.4119C2.84573 8.30084 7.81357 3.3332 13.9249 3.3332C20.0362 3.3332 25.0041 8.30084 25.0041 14.4119C25.0041 15.3775 24.877 16.3304 24.6356 17.2578C24.4323 18.0201 24.8897 18.7951 25.6393 18.9857C26.4017 19.189 27.1767 18.7316 27.3673 17.982C27.6722 16.8259 27.8247 15.6316 27.8247 14.4119C27.8247 6.73814 21.5863 0.500008 13.9122 0.500008C6.23809 0.500008 -0.000299599 6.73814 -0.000299599 14.4119C-0.000299599 16.6099 0.533326 18.8078 1.52435 20.7517C1.79117 21.2472 2.28668 21.5267 2.80761 21.5267L2.80762 21.5267Z" fill="#E65418"/>
</svg>
