<svg width="49" height="50" viewBox="0 0 49 50" fill="none" xmlns="http://www.w3.org/2000/svg">
<path fill-rule="evenodd" clip-rule="evenodd" d="M12.6419 16.3116L8.87831 12.9661C8.27656 12.4315 7.93152 11.6631 7.93152 10.8576V10.7652C7.93152 10.071 8.20178 9.41858 8.69284 8.92752C9.11854 8.50182 9.68496 8.26747 10.2867 8.26747C10.8885 8.26747 11.4549 8.50182 11.8806 8.92752L12.6419 9.68883L13.4032 8.92751C14.2546 8.0767 15.7396 8.0767 16.591 8.92751C17.082 9.41858 17.3523 10.071 17.3523 10.7652V10.8576C17.3523 11.6625 17.0073 12.4315 16.4055 12.9661L12.6419 16.3116ZM18.531 10.8587V10.7662C18.531 9.75761 18.1382 8.80965 17.4246 8.09602C16.7769 7.44775 15.9149 7.09094 14.9982 7.09094C14.115 7.09094 13.2824 7.42244 12.643 8.02654C12.0035 7.42244 11.171 7.09094 10.2878 7.09094C9.37103 7.09094 8.50903 7.44775 7.86136 8.09602C7.14773 8.80964 6.755 9.75761 6.755 10.7662V10.8587C6.755 11.9998 7.2443 13.089 8.09688 13.8468L12.643 17.8883L17.1885 13.8474C18.0417 13.0896 18.531 12.0003 18.531 10.8587L18.531 10.8587Z" fill="#E65418"/>
<path fill-rule="evenodd" clip-rule="evenodd" d="M47.4194 26.5801C47.4194 27.0163 47.0645 27.3704 46.629 27.3704H37.5656L33.6994 32.0088C33.5429 32.1953 33.1936 32.0696 33.1936 31.8262V27.3704H22.9194C22.4839 27.3704 22.129 27.0163 22.129 26.5801V22.6284H22.9194C24.2266 22.6284 25.2903 21.5647 25.2903 20.2575V8.40264H46.6291C47.0645 8.40264 47.4194 8.7567 47.4194 9.19296L47.4194 26.5801ZM28.4514 42.3869C28.4514 42.8231 28.0965 43.1772 27.6611 43.1772H17.3869V47.633C17.3869 47.8772 17.0375 48.0037 16.8811 47.8156L13.0148 43.1772H3.95138C3.51591 43.1772 3.16106 42.8231 3.16106 42.3869V26.5804C3.16106 26.1442 3.51592 25.7901 3.95138 25.7901H11.7479L12.5058 26.699C12.8615 27.1257 13.3839 27.3707 13.9395 27.3707C14.8705 27.3707 15.6379 26.6832 15.777 25.7901H20.5482V26.5804C20.5482 27.8876 21.6119 28.9514 22.9191 28.9514H28.4514L28.4514 42.3869ZM20.5489 24.2097H15.8069V22.629H20.5489V24.2097ZM2.37085 21.0483C1.93538 21.0483 1.58053 20.6942 1.58053 20.2579V2.87085C1.58053 2.43459 1.93539 2.08053 2.37085 2.08053H22.9192C23.3547 2.08053 23.7096 2.43459 23.7096 2.87085V20.2579C23.7096 20.6942 23.3547 21.0483 22.9192 21.0483H14.2257V25.5041C14.2257 25.7483 13.8764 25.8748 13.7199 25.6867L9.85362 21.0483H2.37085ZM46.629 6.82258H25.2903V2.87097C25.2903 1.56377 24.2265 0.5 22.9194 0.5H2.37097C1.06377 0.5 0 1.56377 0 2.87097V20.2581C0 21.5653 1.06377 22.629 2.37097 22.629H9.114L10.4315 24.2097H3.95161C2.64442 24.2097 1.58065 25.2735 1.58065 26.5806V42.3871C1.58065 43.6943 2.64442 44.7581 3.95161 44.7581H12.2753L15.6674 48.8282C16.023 49.255 16.5454 49.5 17.101 49.5C18.13 49.5 18.9677 48.6623 18.9677 47.6333V44.7581H27.6613C28.9685 44.7581 30.0323 43.6943 30.0323 42.3871V28.9516H31.6129V31.8268C31.6129 32.8558 32.4506 33.6935 33.4796 33.6935C34.0352 33.6935 34.5576 33.4486 34.9133 33.0218L38.3054 28.9516H46.629C47.9362 28.9516 49 27.8878 49 26.5806V9.19355C49 7.88635 47.9362 6.82258 46.629 6.82258Z" fill="#E65418"/>
<path fill-rule="evenodd" clip-rule="evenodd" d="M21.5509 34.136C21.5509 34.7698 21.0354 35.2852 20.4017 35.2852C19.7679 35.2852 19.2524 34.7698 19.2524 34.136C19.2524 33.5022 19.7679 32.9868 20.4017 32.9868C21.0354 32.9868 21.5509 33.5022 21.5509 34.136ZM14.6541 32.9872C14.6541 32.3534 15.1695 31.8379 15.8033 31.8379C16.4371 31.8379 16.9525 32.3534 16.9525 32.9872C16.9525 33.6209 16.4371 34.1364 15.8033 34.1364C15.1695 34.1364 14.6541 33.6209 14.6541 32.9872ZM10.057 34.136C10.057 33.5022 10.5724 32.9868 11.2062 32.9868C11.84 32.9868 12.3554 33.5022 12.3554 34.136C12.3554 34.7698 11.84 35.2852 11.2062 35.2852C10.5724 35.2852 10.057 34.7698 10.057 34.136ZM18.1022 34.1367C18.1022 34.4775 18.1815 34.7981 18.3148 35.0888C18.0671 34.8693 17.7913 34.682 17.4931 34.5332C17.8677 34.1241 18.1022 33.5845 18.1022 32.9875C18.1022 31.7199 17.0713 30.6891 15.8038 30.6891C14.5362 30.6891 13.5053 31.7199 13.5053 32.9875C13.5053 33.5845 13.7398 34.1241 14.1144 34.5332C13.8162 34.682 13.5404 34.8693 13.2927 35.0888C13.426 34.7981 13.5053 34.4775 13.5053 34.1367C13.5053 32.8691 12.4745 31.8383 11.2069 31.8383C9.93933 31.8383 8.90849 32.8691 8.90849 34.1367C8.90849 34.7492 9.1527 35.3026 9.54457 35.7152C8.48155 36.303 7.75928 37.4349 7.75928 38.7336V39.8828H8.90849V38.7336C8.90849 37.466 9.93933 36.4351 11.2069 36.4351C11.5689 36.4351 11.916 36.5213 12.232 36.6793C12.1412 36.9419 12.0746 37.2166 12.0424 37.5033L11.785 39.819L12.9267 39.946L13.1841 37.6303C13.3329 36.2938 14.4592 35.2859 15.8037 35.2859C17.1483 35.2859 18.2745 36.2938 18.4234 37.6303L18.6808 39.946L19.8225 39.819L19.5651 37.5033C19.5335 37.2166 19.4663 36.9419 19.3755 36.6793C19.6915 36.5213 20.0386 36.4351 20.4006 36.4351C21.6682 36.4351 22.699 37.466 22.699 38.7335V39.8828H23.8482V38.7335C23.8482 37.4349 23.1259 36.303 22.0629 35.7152C22.4548 35.3026 22.699 34.7492 22.699 34.1367C22.699 32.8691 21.6682 31.8383 20.4006 31.8383C19.133 31.8383 18.1022 32.8691 18.1022 34.1367V34.1367Z" fill="#E65418"/>
<path fill-rule="evenodd" clip-rule="evenodd" d="M40.4223 21.1304C40.4223 21.7259 39.9381 22.2101 39.3426 22.2101H36.9699C35.8983 22.2101 34.859 21.9181 33.9439 21.369V17.035L34.4277 16.5512C35.1365 15.8424 35.6402 14.9532 35.8831 13.9809C35.9431 13.7407 36.1585 13.5722 36.4068 13.5722C36.7108 13.5722 36.998 13.7051 37.1945 13.9377C37.391 14.1699 37.4752 14.4749 37.425 14.7751L37.086 16.8115H39.3426C39.9381 16.8115 40.4223 17.2957 40.4223 17.8912V21.1304ZM30.7038 22.2081V16.8095H32.8632L32.8638 22.2081H30.7038ZM39.3419 15.7303H38.3593L38.4894 14.9507C38.5915 14.3369 38.4198 13.7128 38.0176 13.2383C37.6154 12.7632 37.028 12.4911 36.4061 12.4911C35.6616 12.4911 35.0154 12.9959 34.8345 13.7177C34.6391 14.5005 34.2342 15.2153 33.6636 15.7864L33.5043 15.9457C33.3245 15.8124 33.1043 15.7303 32.8635 15.7303H30.704C30.1085 15.7303 29.6243 16.2146 29.6243 16.81V22.2087C29.6243 22.8042 30.1085 23.2885 30.704 23.2885H32.8635C33.3348 23.2885 33.7316 22.9834 33.879 22.5618C34.8367 23.0369 35.8889 23.2885 36.9692 23.2885H39.3419C40.5328 23.2885 41.5014 22.3199 41.5014 21.129V17.8898C41.5014 16.6988 40.5328 15.7303 39.3419 15.7303L39.3419 15.7303Z" fill="#E65418"/>
</svg>
