<svg width="67" height="62" viewBox="0 0 67 62" fill="none" xmlns="http://www.w3.org/2000/svg">
<path fill-rule="evenodd" clip-rule="evenodd" d="M54.2591 59.2827V18.2725H63.1175V59.2827H54.2591ZM37.6497 59.2811V27.1379H46.5081V59.2811H37.6497ZM21.0403 59.2824V36.0063H29.8986V59.2824H21.0403ZM4.43084 59.2814V45.9808H13.2892V59.2814H4.43084ZM65.3304 59.2844V16.0574H52.0429V59.2844H48.721V24.9245H35.4334V59.2844H32.1115V33.7915H18.824V59.2844H15.5021V43.767H2.21458V59.2844H1.10729C0.496065 59.2844 0 59.7798 0 60.3928C0 61.0057 0.496065 61.5012 1.10729 61.5012H2.21458H15.5021H18.824H32.1115H35.4334H48.721H52.0429H65.3304C65.9416 61.5012 66.4377 61.0057 66.4377 60.3928C66.4377 59.7798 65.9416 59.2844 65.3304 59.2844Z" fill="#E65418"/>
<path fill-rule="evenodd" clip-rule="evenodd" d="M10.3768 30.1418C10.575 30.1418 10.7779 30.0915 10.962 29.985L53.4927 5.48061L50.8308 11.32C50.5623 11.9086 50.8226 12.6026 51.4124 12.8694C51.5696 12.9419 51.7349 12.9747 51.8979 12.9747C52.3435 12.9747 52.7692 12.7196 52.9662 12.2889L57.1432 3.12613C57.1561 3.09688 57.1537 3.06527 57.1643 3.03485C57.1866 2.97283 57.2042 2.91315 57.2159 2.84762C57.2217 2.81486 57.2405 2.78794 57.2428 2.75401C57.244 2.73996 57.2382 2.72827 57.2393 2.71422C57.2417 2.66975 57.237 2.6288 57.2346 2.58432C57.2311 2.51996 57.2206 2.4591 57.2065 2.39475C57.1971 2.35028 57.1948 2.30464 57.1795 2.26135C57.1655 2.21922 57.1408 2.18411 57.1221 2.14315C57.1068 2.11624 57.1068 2.08464 57.0904 2.05656C57.074 2.02848 57.0459 2.01209 57.0271 1.98517C57.0025 1.9489 56.9837 1.91028 56.9544 1.87751C56.9239 1.84241 56.8852 1.81783 56.85 1.78624C56.802 1.74294 56.7539 1.70316 56.6999 1.66804C56.6636 1.64464 56.6307 1.6189 56.5909 1.599C56.578 1.59315 56.5709 1.58144 56.558 1.57559C56.5287 1.56271 56.4971 1.56506 56.4678 1.55452C56.4033 1.53111 56.3399 1.51474 56.2731 1.50303C56.2426 1.49718 56.218 1.47962 56.1863 1.47728L46.1461 0.506004C45.4953 0.44047 44.9277 0.91558 44.8656 1.55686C44.8023 2.20049 45.2748 2.77272 45.9186 2.83475L52.3166 3.45379L9.78936 27.9582C9.22766 28.2812 9.03652 28.9974 9.36017 29.5567C9.57711 29.9324 9.97111 30.1418 10.3769 30.1418H10.3768Z" fill="#E65418"/>
</svg>
