<svg width="65" height="66" viewBox="0 0 65 66" fill="none" xmlns="http://www.w3.org/2000/svg">
<path d="M61.5828 3.98993H3.4172C1.53296 3.98993 0 5.52289 0 7.40713V49.2863C0 51.1705 1.53296 52.7035 3.4172 52.7035H25.448L24.5573 59.8287H20.8669C20.2646 59.8287 19.7763 60.317 19.7763 60.9194C19.7763 61.5217 20.2645 62.01 20.8669 62.01H44.1331C44.7354 62.01 45.2238 61.5218 45.2238 60.9194C45.2238 60.3171 44.7355 59.8287 44.1331 59.8287H40.4427L39.552 52.7035H61.5828C63.467 52.7035 65 51.1705 65 49.2863V7.40713C65 5.52289 63.467 3.98993 61.5828 3.98993ZM26.7554 59.8289L27.6461 52.7036H37.3538L38.2445 59.8289H26.7554ZM62.8188 49.2863C62.8188 49.9679 62.2644 50.5223 61.5828 50.5223H3.4172C2.73559 50.5223 2.18118 49.9679 2.18118 49.2863V7.40713C2.18118 6.72552 2.73559 6.17111 3.4172 6.17111H61.5828C62.2644 6.17111 62.8188 6.72552 62.8188 7.40713V49.2863Z" fill="#E65418"/>
<path d="M51.113 8.64313H5.74385C5.14159 8.64313 4.6532 9.13139 4.6532 9.73378V45.7965C4.6532 46.3987 5.14146 46.8871 5.74385 46.8871H9.23417C9.83644 46.8871 10.3248 46.3989 10.3248 45.7965C10.3248 45.1942 9.83669 44.7058 9.23417 44.7058H6.83438V10.8243H51.113C51.7152 10.8243 52.2036 10.336 52.2036 9.73366C52.2036 9.13152 51.7152 8.64313 51.113 8.64313Z" fill="#E65418"/>
<path d="M59.2562 8.64313H55.7662C55.164 8.64313 54.6756 9.13139 54.6756 9.73378C54.6756 10.336 55.1638 10.8244 55.7662 10.8244H58.1655V44.7058H13.8868C13.2845 44.7058 12.7961 45.1941 12.7961 45.7965C12.7961 46.3987 13.2844 46.8871 13.8868 46.8871H59.256C59.8583 46.8871 60.3467 46.3989 60.3467 45.7965V9.73378C60.3468 9.13152 59.8584 8.64313 59.2562 8.64313Z" fill="#E65418"/>
<path d="M52.2762 14.4598C50.392 14.4598 48.859 15.9927 48.859 17.877C48.859 18.4568 49.0046 19.0029 49.2603 19.4818L40.522 28.7341C40.0867 28.5328 39.6024 28.4194 39.092 28.4194C38.1824 28.4194 37.3554 28.7773 36.7426 29.3587L29.2799 25.408C29.3091 25.2283 29.325 25.0444 29.325 24.8567C29.325 22.9725 27.792 21.4395 25.9078 21.4395C24.0236 21.4395 22.4906 22.9725 22.4906 24.8567C22.4906 25.3837 22.6107 25.8833 22.8246 26.3294L14.2869 34.6161C13.8181 34.3739 13.2869 34.236 12.7237 34.236C10.8395 34.236 9.30652 35.769 9.30652 37.6532C9.30652 39.5375 10.8395 41.0704 12.7237 41.0704C14.608 41.0704 16.1409 39.5375 16.1409 37.6532C16.1409 37.1262 16.0208 36.6267 15.8069 36.1806L24.3446 27.8938C24.8135 28.1361 25.3448 28.2739 25.9078 28.2739C26.8174 28.2739 27.6444 27.916 28.2572 27.3346L35.7199 31.2854C35.6907 31.465 35.6748 31.649 35.6748 31.8366C35.6748 33.7209 37.2078 35.2538 39.092 35.2538C40.9762 35.2538 42.5092 33.7209 42.5092 31.8366C42.5092 31.2568 42.3636 30.7105 42.1078 30.2318L50.8461 20.9795C51.2814 21.1808 51.7657 21.2942 52.2761 21.2942C54.1603 21.2942 55.6933 19.7612 55.6933 17.877C55.6933 15.9927 54.1606 14.4598 52.2762 14.4598ZM12.7237 38.8892C12.0421 38.8892 11.4877 38.3348 11.4877 37.6532C11.4877 36.9716 12.0421 36.4172 12.7237 36.4172C13.4053 36.4172 13.9597 36.9716 13.9597 37.6532C13.9597 38.3348 13.4052 38.8892 12.7237 38.8892ZM25.9079 26.0929C25.2263 26.0929 24.6719 25.5385 24.6719 24.8569C24.6719 24.1752 25.2262 23.6208 25.9079 23.6208C26.5895 23.6208 27.1439 24.1752 27.1439 24.8569C27.1439 25.5383 26.5895 26.0929 25.9079 26.0929ZM39.092 33.0728C38.4104 33.0728 37.856 32.5184 37.856 31.8367C37.856 31.1551 38.4104 30.6007 39.092 30.6007C39.7736 30.6007 40.328 31.1551 40.328 31.8367C40.328 32.5182 39.7736 33.0728 39.092 33.0728ZM52.2762 19.113C51.5946 19.113 51.0402 18.5586 51.0402 17.877C51.0402 17.1954 51.5946 16.641 52.2762 16.641C52.9578 16.641 53.5122 17.1954 53.5122 17.877C53.5122 18.5586 52.9578 19.113 52.2762 19.113Z" fill="#E65418"/>
<path d="M52.2762 23.7662C51.6739 23.7662 51.1855 24.2544 51.1855 24.8568V41.1431C51.1855 41.7454 51.6738 42.2338 52.2762 42.2338C52.8785 42.2338 53.3669 41.7455 53.3669 41.1431V24.8568C53.3669 24.2546 52.8786 23.7662 52.2762 23.7662Z" fill="#E65418"/>
<path d="M25.9079 30.7461C25.3056 30.7461 24.8173 31.2344 24.8173 31.8367V41.1433C24.8173 41.7456 25.3055 42.234 25.9079 42.234C26.5102 42.234 26.9986 41.7457 26.9986 41.1433V31.8367C26.9986 31.2344 26.5102 30.7461 25.9079 30.7461Z" fill="#E65418"/>
<path d="M39.092 37.726C38.4897 37.726 38.0013 38.2142 38.0013 38.8166V41.1433C38.0013 41.7455 38.4896 42.2339 39.092 42.2339C39.6944 42.2339 40.1826 41.7457 40.1826 41.1433V38.8166C40.1826 38.2142 39.6943 37.726 39.092 37.726Z" fill="#E65418"/>
</svg>
