<svg width="33" height="32" viewBox="0 0 33 32" fill="none" xmlns="http://www.w3.org/2000/svg">
<path d="M11.4912 0.750122C8.09605 1.85169 5.19441 4.05332 3.21167 6.93679H8.56174C9.28402 4.39078 10.2935 2.29091 11.4912 0.750122Z" fill="#E65418"/>
<path d="M15.7286 6.9368V0C15.1458 0.025098 14.5727 0.0808497 14.008 0.16732C12.392 1.38039 10.974 3.76752 10.0188 6.9368H15.7286Z" fill="#E65418"/>
<path d="M29.6412 6.93679C27.6571 4.05332 24.7555 1.85169 21.3617 0.750122C22.558 2.29084 23.5675 4.39071 24.2898 6.93679H29.6412Z" fill="#E65418"/>
<path d="M18.8435 0.16732C18.2788 0.0808497 17.7057 0.025098 17.1229 0V6.9368H22.8327C21.8776 3.76752 20.4595 1.38039 18.8435 0.16732Z" fill="#E65418"/>
<path d="M3.21033 25.0632C5.19444 27.9467 8.09608 30.1484 11.4899 31.2499C10.2935 29.7091 9.28405 27.6093 8.56177 25.0632H3.21033Z" fill="#E65418"/>
<path d="M26.8833 16C26.8833 15.6152 27.1957 15.3028 27.5805 15.3028H32.4258C32.317 12.7875 31.6449 10.4171 30.503 8.33112H24.6454C24.736 8.72432 24.8211 9.12308 24.8977 9.53301C24.9689 9.91086 24.7207 10.2762 24.3414 10.3459C24.2982 10.3543 24.2536 10.3584 24.2117 10.3584C23.8826 10.3584 23.5898 10.1256 23.5271 9.78955C23.4323 9.28759 23.3249 8.80373 23.2092 8.32968H17.1229V10.4212C17.1229 10.806 16.8106 11.1184 16.4257 11.1184C16.0409 11.1184 15.7285 10.806 15.7285 10.4212V8.32968H9.64088C9.52656 8.80373 9.41781 9.28759 9.32297 9.78955C9.25186 10.1688 8.88794 10.4184 8.51009 10.3459C8.13225 10.2748 7.88264 9.91086 7.95375 9.53301C8.03042 9.12308 8.11552 8.72288 8.20611 8.33112H2.34859C1.208 10.4171 0.535912 12.7875 0.425781 15.3028H5.27108C5.65591 15.3028 5.96826 15.6152 5.96826 16C5.96826 16.3848 5.65591 16.6972 5.27108 16.6972H0.425781C0.534539 19.2126 1.20663 21.583 2.34859 23.6689H8.20617C8.11552 23.2757 8.03049 22.8769 7.95382 22.467C7.88271 22.0892 8.13088 21.7238 8.51016 21.6541C8.89637 21.5844 9.25336 21.8326 9.32304 22.2105C9.41787 22.7124 9.52519 23.1963 9.64094 23.6703H15.7286V21.5788C15.7286 21.194 16.0409 20.8816 16.4258 20.8816C16.8106 20.8816 17.123 21.194 17.123 21.5788V23.6703H23.2106C23.3249 23.1963 23.4337 22.7124 23.5285 22.2105C23.5996 21.8326 23.9649 21.5844 24.3414 21.6541C24.7192 21.7252 24.9689 22.0892 24.8977 22.467C24.8211 22.8769 24.736 23.2771 24.6454 23.6689H30.503C31.6436 21.583 32.3156 19.2126 32.4258 16.6972H27.5805C27.1957 16.6972 26.8833 16.3848 26.8833 16ZM10.1499 19.4858C8.66774 19.4858 7.4714 18.6534 7.36539 17.5491C7.32911 17.1656 7.60938 16.8254 7.99284 16.7892C8.3763 16.7403 8.7165 17.0346 8.75277 17.4166C8.78068 17.6982 9.32447 18.0914 10.1485 18.0914C10.9879 18.0914 11.5443 17.6718 11.5443 17.3943C11.5443 17.1851 11.3017 16.8951 10.143 16.7041L9.938 16.6692C8.22853 16.3903 7.36264 15.696 7.36264 14.6042C7.36264 13.4316 8.58826 12.5127 10.1527 12.5127C11.6349 12.5127 12.8312 13.3451 12.9372 14.4494C12.9735 14.8329 12.6932 15.1731 12.3098 15.2094C11.9263 15.254 11.5861 14.9639 11.5498 14.5819C11.5219 14.3003 10.9781 13.9084 10.1541 13.9084C9.31467 13.9084 8.75833 14.3281 8.75833 14.6056C8.75833 14.7771 8.94101 15.095 10.1638 15.2945L10.3702 15.3293C12.0768 15.6096 12.9413 16.3039 12.9413 17.3943C12.94 18.567 11.7143 19.4858 10.1499 19.4858ZM17.8201 15.3028C18.2049 15.3028 18.5173 15.6152 18.5173 16C18.5173 16.3848 18.2049 16.6972 17.8201 16.6972H15.7286V18.0915H18.5173C18.9021 18.0915 19.2145 18.4039 19.2145 18.7887C19.2145 19.1735 18.9021 19.4859 18.5173 19.4859H15.0315C14.6466 19.4859 14.3343 19.1735 14.3343 18.7887V13.2114C14.3343 12.8265 14.6466 12.5142 15.0315 12.5142H18.5173C18.9021 12.5142 19.2145 12.8265 19.2145 13.2114C19.2145 13.5962 18.9021 13.9085 18.5173 13.9085H15.7286V15.3028H17.8201ZM25.489 16.6972C25.489 18.2352 24.2383 19.4859 22.7003 19.4859C21.1623 19.4859 19.9116 18.2352 19.9116 16.6972V15.3029C19.9116 13.7649 21.1623 12.5142 22.7003 12.5142C24.2383 12.5142 25.489 13.7649 25.489 15.3029V16.6972Z" fill="#E65418"/>
<path d="M22.7003 13.9085C21.932 13.9085 21.306 14.5346 21.306 15.3028V16.6971C21.306 17.4654 21.9321 18.0914 22.7003 18.0914C23.4686 18.0914 24.0947 17.4654 24.0947 16.6971V15.3028C24.0947 14.5346 23.4686 13.9085 22.7003 13.9085Z" fill="#E65418"/>
<path d="M21.3604 31.2499C24.7556 30.1484 27.6571 27.9467 29.6399 25.0632H24.2898C23.5675 27.6092 22.5581 29.7091 21.3604 31.2499Z" fill="#E65418"/>
<path d="M17.1229 25.0632V32C17.7057 31.9749 18.2788 31.9191 18.8435 31.8327C20.4595 30.6196 21.8776 28.2325 22.8327 25.0632H17.1229Z" fill="#E65418"/>
<path d="M14.008 31.8327C14.5727 31.9191 15.1458 31.9749 15.7286 32V25.0632H10.0188C10.974 28.2325 12.392 30.6196 14.008 31.8327Z" fill="#E65418"/>
</svg>
